{
.appVersion = "1286";
customParameters = (
{
name = glyphOrder;
value = (
.notdef,
space,
uniE050,
uniE062,
uniE05C,
uniE08A,
uniE08B,
uniE1D2,
uniE1D4,
uniE1D3,
uniE1D6,
uniE1D5,
uniE1D8,
uniE1D7,
uniE561,
uniE560,
uniE1DA,
uniE1D9,
uniE1DC,
uniE1DB,
uniE4E3,
uniE4E4,
uniE4E5,
uniE4E6,
uniE4E7,
uniE4E8,
uniE260,
uniE261,
uniE262,
uniE263,
uniE030,
uniE043,
uniE1FC,
uniE4C0,
uniE4C1,
uniE8E4,
uniE8E5,
uniF0A0,
uniF0A6,
uniF0A7,
uniF0A2,
uniF0A8,
uniE1F3,
uniF0A9,
uniF0B0,
uniF0B1,
uniF0A4,
uniF0B3,
uniE1F5,
uniF0B4,
uniF0B2,
uniF0B5,
uniE080,
uniE081,
uniE082,
uniE083,
uniE084,
uniE085,
uniE086,
uniE087,
uniE088,
uniE089,
uniE4CE
);
}
);
date = "2018-02-06 14:33:21 +0000";
designer = "Daniel Spreadbury et al., Beatriz Pascual Sánchez. David Rizo Valero";
disablesNiceNames = 1;
familyName = BravuraModernMuRET;
fontMaster = (
{
alignmentZones = (
"{0, 0}"
);
ascender = 2012;
capHeight = 475;
descender = -2012;
id = "02376AAC-77FF-49DA-9399-294AF7A35492";
weightValue = 400;
widthValue = 5;
xHeight = 275;
}
);
glyphs = (
{
glyphname = uniE050;
lastChange = "2019-03-25 18:16:56 +0000";
layers = (
{
hints = (
{
horizontal = 1;
place = "{-658, 36}";
type = Stem;
},
{
horizontal = 1;
place = "{-252, 36}";
type = Stem;
},
{
place = "{0, 80}";
type = Stem;
},
{
place = "{292, 45}";
type = Stem;
},
{
place = "{475, 44}";
type = Stem;
},
{
place = "{589, 82}";
type = Stem;
},
{
horizontal = 1;
place = "{943, 155}";
type = Stem;
},
{
place = "{530, 42}";
type = Stem;
},
{
horizontal = 1;
place = "{117, 135}";
type = Stem;
},
{
place = "{132, 203}";
type = Stem;
},
{
place = "{201, 67}";
type = Stem;
}
);
layerId = "02376AAC-77FF-49DA-9399-294AF7A35492";
paths = (
{
closed = 1;
nodes = (
"503 943 OFFCURVE",
"530 916 OFFCURVE",
"530 861 CURVE SMOOTH",
"530 792 OFFCURVE",
"497 728 OFFCURVE",
"419 650 CURVE SMOOTH",
"403 634 OFFCURVE",
"379 611 OFFCURVE",
"356 591 CURVE SMOOTH",
"349 585 OFFCURVE",
"345 586 OFFCURVE",
"343 599 CURVE SMOOTH",
"339 625 OFFCURVE",
"337 659 OFFCURVE",
"337 691 CURVE SMOOTH",
"337 847 OFFCURVE",
"409 943 OFFCURVE",
"470 943 CURVE SMOOTH"
);
},
{
closed = 1;
nodes = (
"430 103 LINE SMOOTH",
"428 115 OFFCURVE",
"429 118 OFFCURVE",
"441 117 CURVE SMOOTH",
"522 110 OFFCURVE",
"589 42 OFFCURVE",
"589 -46 CURVE SMOOTH",
"589 -109 OFFCURVE",
"551 -160 OFFCURVE",
"495 -188 CURVE SMOOTH",
"483 -194 OFFCURVE",
"481 -194 OFFCURVE",
"479 -182 CURVE SMOOTH"
);
},
{
closed = 1;
nodes = (
"361 262 LINE SMOOTH",
"364 243 OFFCURVE",
"364 244 OFFCURVE",
"346 238 CURVE SMOOTH",
"258 208 OFFCURVE",
"201 129 OFFCURVE",
"201 44 CURVE SMOOTH",
"201 -46 OFFCURVE",
"248 -110 OFFCURVE",
"316 -133 CURVE SMOOTH",
"324 -136 OFFCURVE",
"336 -139 OFFCURVE",
"343 -139 CURVE SMOOTH",
"351 -139 OFFCURVE",
"355 -134 OFFCURVE",
"355 -128 CURVE SMOOTH",
"355 -121 OFFCURVE",
"347 -118 OFFCURVE",
"340 -115 CURVE SMOOTH",
"298 -97 OFFCURVE",
"268 -54 OFFCURVE",
"268 -8 CURVE SMOOTH",
"268 49 OFFCURVE",
"307 92 OFFCURVE",
"368 109 CURVE SMOOTH",
"384 113 OFFCURVE",
"386 112 OFFCURVE",
"388 101 CURVE SMOOTH",
"438 -197 LINE SMOOTH",
"440 -208 OFFCURVE",
"439 -208 OFFCURVE",
"424 -211 CURVE SMOOTH",
"408 -214 OFFCURVE",
"388 -216 OFFCURVE",
"368 -216 CURVE SMOOTH",
"193 -216 OFFCURVE",
"80 -119 OFFCURVE",
"80 20 CURVE SMOOTH",
"80 79 OFFCURVE",
"90 158 OFFCURVE",
"173 252 CURVE SMOOTH",
"233 319 OFFCURVE",
"279 356 OFFCURVE",
"326 394 CURVE SMOOTH",
"336 402 OFFCURVE",
"338 401 OFFCURVE",
"340 390 CURVE SMOOTH"
);
},
{
closed = 1;
nodes = (
"376 415 LINE SMOOTH",
"374 427 OFFCURVE",
"376 428 OFFCURVE",
"382 434 CURVE SMOOTH",
"398 449 OFFCURVE",
"419 470 OFFCURVE",
"438 491 CURVE SMOOTH",
"522 583 OFFCURVE",
"572 702 OFFCURVE",
"572 815 CURVE SMOOTH",
"572 902 OFFCURVE",
"548 988 OFFCURVE",
"507 1048 CURVE SMOOTH",
"492 1070 OFFCURVE",
"466 1098 OFFCURVE",
"455 1098 CURVE SMOOTH",
"441 1098 OFFCURVE",
"410 1072 OFFCURVE",
"390 1050 CURVE SMOOTH",
"316 968 OFFCURVE",
"292 843 OFFCURVE",
"292 739 CURVE SMOOTH",
"292 681 OFFCURVE",
"299 616 OFFCURVE",
"306 575 CURVE SMOOTH",
"308 563 OFFCURVE",
"309 561 OFFCURVE",
"297 551 CURVE SMOOTH",
"233 498 OFFCURVE",
"164 437 OFFCURVE",
"112 373 CURVE SMOOTH",
"43 287 OFFCURVE",
"0 194 OFFCURVE",
"0 87 CURVE SMOOTH",
"0 -87 OFFCURVE",
"119 -252 OFFCURVE",
"364 -252 CURVE SMOOTH",
"387 -252 OFFCURVE",
"413 -250 OFFCURVE",
"433 -246 CURVE SMOOTH",
"444 -244 OFFCURVE",
"446 -243 OFFCURVE",
"448 -255 CURVE SMOOTH",
"460 -322 OFFCURVE",
"475 -409 OFFCURVE",
"475 -456 CURVE SMOOTH",
"475 -604 OFFCURVE",
"375 -622 OFFCURVE",
"316 -622 CURVE SMOOTH",
"262 -622 OFFCURVE",
"236 -606 OFFCURVE",
"236 -593 CURVE SMOOTH",
"236 -586 OFFCURVE",
"245 -583 OFFCURVE",
"268 -576 CURVE SMOOTH",
"299 -567 OFFCURVE",
"335 -540 OFFCURVE",
"335 -482 CURVE SMOOTH",
"335 -427 OFFCURVE",
"300 -380 OFFCURVE",
"239 -380 CURVE SMOOTH",
"172 -380 OFFCURVE",
"132 -433 OFFCURVE",
"132 -495 CURVE SMOOTH",
"132 -560 OFFCURVE",
"171 -658 OFFCURVE",
"322 -658 CURVE SMOOTH",
"389 -658 OFFCURVE",
"519 -628 OFFCURVE",
"519 -458 CURVE SMOOTH",
"519 -401 OFFCURVE",
"501 -306 OFFCURVE",
"490 -244 CURVE SMOOTH",
"488 -232 OFFCURVE",
"489 -233 OFFCURVE",
"503 -227 CURVE SMOOTH",
"604 -187 OFFCURVE",
"671 -102 OFFCURVE",
"671 11 CURVE SMOOTH",
"671 139 OFFCURVE",
"577 252 OFFCURVE",
"430 252 CURVE SMOOTH",
"404 252 OFFCURVE",
"404 252 OFFCURVE",
"401 270 CURVE SMOOTH"
);
}
);
width = 671;
}
);
note = uniE050;
unicode = E050;
},
{
glyphname = uniE062;
lastChange = "2019-03-26 19:46:27 +0000";
layers = (
{
hints = (
{
horizontal = 1;
place = "{-110, 210}";
type = Stem;
},
{
horizontal = 1;
place = "{224, 38}";
type = Stem;
},
{
place = "{0, 67}";
type = Stem;
},
{
place = "{381, 150}";
type = Stem;
},
{
place = "{576, 108}";
type = Stem;
},
{
horizontal = 1;
place = "{-179, 108}";
type = Stem;
},
{
horizontal = 1;
place = "{70, 110}";
type = Stem;
}
);
layerId = "02376AAC-77FF-49DA-9399-294AF7A35492";
paths = (
{
closed = 1;
nodes = (
"83 262 OFFCURVE",
"5 135 OFFCURVE",
"5 39 CURVE SMOOTH",
"5 -41 OFFCURVE",
"47 -110 OFFCURVE",
"128 -110 CURVE SMOOTH",
"191 -110 OFFCURVE",
"234 -66 OFFCURVE",
"234 -4 CURVE SMOOTH",
"234 60 OFFCURVE",
"187 100 OFFCURVE",
"138 100 CURVE SMOOTH",
"111 100 OFFCURVE",
"101 93 OFFCURVE",
"88 93 CURVE SMOOTH",
"75 93 OFFCURVE",
"72 101 OFFCURVE",
"72 111 CURVE SMOOTH",
"72 151 OFFCURVE",
"132 224 OFFCURVE",
"234 224 CURVE SMOOTH",
"340 224 OFFCURVE",
"386 120 OFFCURVE",
"386 -37 CURVE SMOOTH",
"386 -140 OFFCURVE",
"364 -260 OFFCURVE",
"302 -356 CURVE SMOOTH",
"242 -449 OFFCURVE",
"139 -534 OFFCURVE",
"15 -605 CURVE SMOOTH",
"6 -610 OFFCURVE",
"0 -615 OFFCURVE",
"0 -623 CURVE SMOOTH",
"0 -629 OFFCURVE",
"4 -635 OFFCURVE",
"13 -635 CURVE SMOOTH",
"18 -635 OFFCURVE",
"24 -633 OFFCURVE",
"30 -630 CURVE SMOOTH",
"163 -565 OFFCURVE",
"291 -489 OFFCURVE",
"397 -375 CURVE SMOOTH",
"484 -281 OFFCURVE",
"536 -159 OFFCURVE",
"536 -28 CURVE SMOOTH",
"536 146 OFFCURVE",
"430 262 OFFCURVE",
"257 262 CURVE SMOOTH"
);
},
{
closed = 1;
nodes = (
"604 -71 OFFCURVE",
"581 -94 OFFCURVE",
"581 -125 CURVE SMOOTH",
"581 -156 OFFCURVE",
"604 -179 OFFCURVE",
"635 -179 CURVE SMOOTH",
"666 -179 OFFCURVE",
"689 -156 OFFCURVE",
"689 -125 CURVE SMOOTH",
"689 -94 OFFCURVE",
"666 -71 OFFCURVE",
"635 -71 CURVE SMOOTH"
);
},
{
closed = 1;
nodes = (
"603 180 OFFCURVE",
"579 156 OFFCURVE",
"579 125 CURVE SMOOTH",
"579 94 OFFCURVE",
"603 70 OFFCURVE",
"634 70 CURVE SMOOTH",
"665 70 OFFCURVE",
"689 94 OFFCURVE",
"689 125 CURVE SMOOTH",
"689 156 OFFCURVE",
"665 180 OFFCURVE",
"634 180 CURVE SMOOTH"
);
}
);
width = 689;
}
);
note = uniE062;
unicode = E062;
},
{
glyphname = uniE05C;
lastChange = "2019-03-25 18:50:08 +0000";
layers = (
{
hints = (
{
horizontal = 1;
place = "{-506, 32}";
type = Stem;
},
{
horizontal = 1;
place = "{-89, 36}";
type = Stem;
},
{
horizontal = 1;
place = "{53, 36}";
type = Stem;
},
{
horizontal = 1;
place = "{474, 32}";
type = Stem;
},
{
place = "{0, 128}";
type = Stem;
},
{
place = "{187, 43}";
type = Stem;
},
{
place = "{289, 145}";
type = Stem;
},
{
place = "{558, 141}";
type = Stem;
}
);
layerId = "02376AAC-77FF-49DA-9399-294AF7A35492";
paths = (
{
closed = 1;
nodes = (
"21 503 LINE SMOOTH",
"7 503 OFFCURVE",
"0 496 OFFCURVE",
"0 482 CURVE SMOOTH",
"0 -482 LINE SMOOTH",
"0 -496 OFFCURVE",
"7 -503 OFFCURVE",
"21 -503 CURVE SMOOTH",
"107 -503 LINE SMOOTH",
"121 -503 OFFCURVE",
"128 -496 OFFCURVE",
"128 -482 CURVE SMOOTH",
"128 482 LINE SMOOTH",
"128 496 OFFCURVE",
"121 503 OFFCURVE",
"107 503 CURVE SMOOTH"
);
},
{
closed = 1;
nodes = (
"230 482 LINE SMOOTH",
"230 496 OFFCURVE",
"223 503 OFFCURVE",
"209 503 CURVE SMOOTH",
"208 503 LINE SMOOTH",
"194 503 OFFCURVE",
"187 496 OFFCURVE",
"187 482 CURVE SMOOTH",
"187 -482 LINE SMOOTH",
"187 -496 OFFCURVE",
"194 -503 OFFCURVE",
"208 -503 CURVE SMOOTH",
"209 -503 LINE SMOOTH",
"223 -503 OFFCURVE",
"230 -496 OFFCURVE",
"230 -482 CURVE SMOOTH",
"230 -44 LINE SMOOTH",
"230 -36 OFFCURVE",
"235 -37 OFFCURVE",
"239 -38 CURVE SMOOTH",
"265 -45 OFFCURVE",
"307 -71 OFFCURVE",
"328 -184 CURVE SMOOTH",
"331 -200 OFFCURVE",
"337 -209 OFFCURVE",
"347 -209 CURVE SMOOTH",
"358 -209 OFFCURVE",
"363 -199 OFFCURVE",
"368 -182 CURVE SMOOTH",
"381 -138 OFFCURVE",
"404 -89 OFFCURVE",
"475 -89 CURVE SMOOTH",
"540 -89 OFFCURVE",
"558 -153 OFFCURVE",
"558 -284 CURVE SMOOTH",
"558 -415 OFFCURVE",
"535 -474 OFFCURVE",
"452 -474 CURVE SMOOTH",
"430 -474 OFFCURVE",
"410 -471 OFFCURVE",
"394 -466 CURVE SMOOTH",
"377 -461 OFFCURVE",
"367 -454 OFFCURVE",
"367 -447 CURVE SMOOTH",
"367 -442 OFFCURVE",
"383 -436 OFFCURVE",
"394 -432 CURVE SMOOTH",
"414 -425 OFFCURVE",
"434 -405 OFFCURVE",
"434 -367 CURVE SMOOTH",
"434 -323 OFFCURVE",
"405 -298 OFFCURVE",
"366 -298 CURVE SMOOTH",
"323 -298 OFFCURVE",
"289 -327 OFFCURVE",
"289 -380 CURVE SMOOTH",
"289 -443 OFFCURVE",
"344 -506 OFFCURVE",
"463 -506 CURVE SMOOTH",
"627 -506 OFFCURVE",
"699 -391 OFFCURVE",
"699 -287 CURVE SMOOTH",
"699 -149 OFFCURVE",
"623 -53 OFFCURVE",
"490 -53 CURVE SMOOTH",
"461 -53 OFFCURVE",
"442 -58 OFFCURVE",
"429 -62 CURVE SMOOTH",
"419 -65 OFFCURVE",
"409 -67 OFFCURVE",
"400 -61 CURVE SMOOTH",
"386 -52 OFFCURVE",
"364 -20 OFFCURVE",
"364 0 CURVE SMOOTH",
"364 20 OFFCURVE",
"386 52 OFFCURVE",
"400 61 CURVE SMOOTH",
"409 67 OFFCURVE",
"419 65 OFFCURVE",
"429 62 CURVE SMOOTH",
"442 58 OFFCURVE",
"461 53 OFFCURVE",
"490 53 CURVE SMOOTH",
"623 53 OFFCURVE",
"699 149 OFFCURVE",
"699 287 CURVE SMOOTH",
"699 391 OFFCURVE",
"627 506 OFFCURVE",
"463 506 CURVE SMOOTH",
"344 506 OFFCURVE",
"289 443 OFFCURVE",
"289 380 CURVE SMOOTH",
"289 327 OFFCURVE",
"323 298 OFFCURVE",
"366 298 CURVE SMOOTH",
"405 298 OFFCURVE",
"434 323 OFFCURVE",
"434 367 CURVE SMOOTH",
"434 405 OFFCURVE",
"414 425 OFFCURVE",
"394 432 CURVE SMOOTH",
"383 436 OFFCURVE",
"367 442 OFFCURVE",
"367 447 CURVE SMOOTH",
"367 454 OFFCURVE",
"377 461 OFFCURVE",
"394 466 CURVE SMOOTH",
"410 471 OFFCURVE",
"430 474 OFFCURVE",
"452 474 CURVE SMOOTH",
"535 474 OFFCURVE",
"558 415 OFFCURVE",
"558 284 CURVE SMOOTH",
"558 153 OFFCURVE",
"540 89 OFFCURVE",
"475 89 CURVE SMOOTH",
"404 89 OFFCURVE",
"381 138 OFFCURVE",
"368 182 CURVE SMOOTH",
"363 199 OFFCURVE",
"358 209 OFFCURVE",
"347 209 CURVE SMOOTH",
"337 209 OFFCURVE",
"331 200 OFFCURVE",
"328 184 CURVE SMOOTH",
"307 71 OFFCURVE",
"265 45 OFFCURVE",
"239 38 CURVE SMOOTH",
"235 37 OFFCURVE",
"230 36 OFFCURVE",
"230 44 CURVE SMOOTH"
);
}
);
width = 699;
}
);
note = uniE05C;
unicode = E05C;
},
{
glyphname = uniE08A;
lastChange = "2019-03-26 19:46:32 +0000";
layers = (
{
hints = (
{
horizontal = 1;
place = "{-249, 33}";
type = Stem;
},
{
horizontal = 1;
place = "{22, 149}";
type = Stem;
},
{
horizontal = 1;
place = "{227, 24}";
type = Stem;
},
{
place = "{5, 123}";
type = Stem;
},
{
place = "{394, 30}";
type = Stem;
},
{
place = "{250, 153}";
type = Stem;
}
);
layerId = "02376AAC-77FF-49DA-9399-294AF7A35492";
paths = (
{
closed = 1;
nodes = (
"198 251 OFFCURVE",
"163 243 OFFCURVE",
"136 231 CURVE SMOOTH",
"47 192 OFFCURVE",
"0 85 OFFCURVE",
"0 -10 CURVE SMOOTH",
"0 -19 OFFCURVE",
"0 -28 OFFCURVE",
"1 -37 CURVE SMOOTH",
"6 -91 OFFCURVE",
"32 -142 OFFCURVE",
"65 -182 CURVE SMOOTH",
"103 -228 OFFCURVE",
"158 -249 OFFCURVE",
"218 -249 CURVE SMOOTH",
"393 -249 OFFCURVE",
"419 -90 OFFCURVE",
"419 -61 CURVE SMOOTH",
"419 -39 OFFCURVE",
"408 -39 OFFCURVE",
"404 -39 CURVE SMOOTH",
"396 -39 OFFCURVE",
"389 -40 OFFCURVE",
"389 -57 CURVE SMOOTH",
"389 -186 OFFCURVE",
"279 -216 OFFCURVE",
"247 -216 CURVE SMOOTH",
"166 -216 OFFCURVE",
"123 -137 OFFCURVE",
"123 28 CURVE SMOOTH",
"123 193 OFFCURVE",
"199 227 OFFCURVE",
"253 227 CURVE SMOOTH",
"305 227 OFFCURVE",
"326 203 OFFCURVE",
"326 193 CURVE SMOOTH",
"326 184 OFFCURVE",
"323 171 OFFCURVE",
"308 171 CURVE SMOOTH",
"268 171 OFFCURVE",
"245 128 OFFCURVE",
"245 97 CURVE SMOOTH",
"245 40 OFFCURVE",
"294 22 OFFCURVE",
"322 22 CURVE",
"322 22 OFFCURVE",
"398 25 OFFCURVE",
"398 108 CURVE SMOOTH",
"398 239 OFFCURVE",
"247 251 OFFCURVE",
"228 251 CURVE SMOOTH"
);
}
);
width = 419;
}
);
note = uniE08A;
unicode = E08A;
},
{
glyphname = uniE08B;
lastChange = "2019-03-26 19:46:37 +0000";
layers = (
{
hints = (
{
horizontal = 1;
place = "{-359, 21}";
target = up;
type = BottomGhost;
},
{
horizontal = 1;
place = "{-249, 34}";
type = Stem;
},
{
horizontal = 1;
place = "{21, 148}";
type = Stem;
},
{
horizontal = 1;
place = "{225, 24}";
type = Stem;
},
{
horizontal = 1;
place = "{361, -20}";
target = down;
type = TopGhost;
},
{
place = "{0, 123}";
type = Stem;
},
{
place = "{175, 35}";
type = Stem;
},
{
place = "{388, 30}";
type = Stem;
},
{
place = "{244, 153}";
type = Stem;
}
);
layerId = "02376AAC-77FF-49DA-9399-294AF7A35492";
paths = (
{
closed = 1;
nodes = (
"175 -163 LINE SMOOTH",
"175 -172 OFFCURVE",
"172 -175 OFFCURVE",
"169 -175 CURVE SMOOTH",
"167 -175 OFFCURVE",
"165 -174 OFFCURVE",
"164 -172 CURVE",
"137 -134 OFFCURVE",
"123 -67 OFFCURVE",
"123 26 CURVE SMOOTH",
"123 102 OFFCURVE",
"139 149 OFFCURVE",
"161 180 CURVE",
"162 182 OFFCURVE",
"163 182 OFFCURVE",
"164 182 CURVE SMOOTH",
"169 182 OFFCURVE",
"175 174 OFFCURVE",
"175 166 CURVE SMOOTH"
);
},
{
closed = 1;
nodes = (
"398 -40 LINE SMOOTH",
"394 -40 OFFCURVE",
"388 -42 OFFCURVE",
"388 -57 CURVE SMOOTH",
"388 -185 OFFCURVE",
"278 -215 OFFCURVE",
"246 -215 CURVE SMOOTH",
"236 -215 OFFCURVE",
"228 -214 OFFCURVE",
"220 -212 CURVE SMOOTH",
"216 -211 OFFCURVE",
"210 -205 OFFCURVE",
"210 -197 CURVE SMOOTH",
"210 199 LINE SMOOTH",
"210 206 OFFCURVE",
"228 223 OFFCURVE",
"235 224 CURVE SMOOTH",
"241 225 OFFCURVE",
"247 225 OFFCURVE",
"252 225 CURVE SMOOTH",
"303 225 OFFCURVE",
"325 201 OFFCURVE",
"325 191 CURVE SMOOTH",
"325 183 OFFCURVE",
"322 169 OFFCURVE",
"307 169 CURVE SMOOTH",
"267 169 OFFCURVE",
"244 126 OFFCURVE",
"244 95 CURVE SMOOTH",
"244 39 OFFCURVE",
"293 21 OFFCURVE",
"321 21 CURVE",
"321 21 OFFCURVE",
"397 24 OFFCURVE",
"397 107 CURVE SMOOTH",
"397 237 OFFCURVE",
"246 249 OFFCURVE",
"227 249 CURVE SMOOTH",
"225 249 OFFCURVE",
"228 248 OFFCURVE",
"221 248 CURVE",
"215 249 OFFCURVE",
"210 266 OFFCURVE",
"210 271 CURVE SMOOTH",
"210 344 LINE SMOOTH",
"210 352 OFFCURVE",
"203 361 OFFCURVE",
"192 361 CURVE SMOOTH",
"184 361 OFFCURVE",
"175 352 OFFCURVE",
"175 344 CURVE SMOOTH",
"175 281 LINE",
"175 256 LINE SMOOTH",
"175 249 OFFCURVE",
"165 240 OFFCURVE",
"163 240 CURVE",
"136 230 LINE",
"46 191 OFFCURVE",
"0 85 OFFCURVE",
"0 -10 CURVE SMOOTH",
"0 -19 OFFCURVE",
"0 -29 OFFCURVE",
"1 -38 CURVE SMOOTH",
"6 -91 OFFCURVE",
"31 -141 OFFCURVE",
"66 -182 CURVE SMOOTH",
"90 -211 OFFCURVE",
"121 -231 OFFCURVE",
"156 -240 CURVE",
"163 -243 OFFCURVE",
"175 -256 OFFCURVE",
"175 -265 CURVE SMOOTH",
"175 -342 LINE SMOOTH",
"175 -351 OFFCURVE",
"184 -359 OFFCURVE",
"192 -359 CURVE SMOOTH",
"203 -359 OFFCURVE",
"210 -351 OFFCURVE",
"210 -342 CURVE SMOOTH",
"210 -263 LINE SMOOTH",
"210 -257 OFFCURVE",
"214 -252 OFFCURVE",
"221 -249 CURVE",
"391 -246 OFFCURVE",
"418 -90 OFFCURVE",
"418 -59 CURVE",
"417 -40 OFFCURVE",
"407 -40 OFFCURVE",
"402 -40 CURVE SMOOTH"
);
}
);
width = 418;
}
);
note = uniE08B;
unicode = E08B;
},
{
glyphname = uniE1D2;
lastChange = "2019-03-26 11:12:29 +0000";
layers = (
{
hints = (
{
horizontal = 1;
place = "{-125, 25}";
type = Stem;
},
{
horizontal = 1;
place = "{123, 25}";
type = Stem;
},
{
place = "{0, 117}";
type = Stem;
},
{
place = "{341, 118}";
type = Stem;
}
);
layerId = "02376AAC-77FF-49DA-9399-294AF7A35492";
paths = (
{
closed = 1;
nodes = (
"90 148 OFFCURVE",
"0 87 OFFCURVE",
"0 13 CURVE SMOOTH",
"0 -60 OFFCURVE",
"62 -125 OFFCURVE",
"224 -125 CURVE SMOOTH",
"402 -125 OFFCURVE",
"459 -63 OFFCURVE",
"459 13 CURVE SMOOTH",
"459 90 OFFCURVE",
"336 148 OFFCURVE",
"235 148 CURVE SMOOTH"
);
},
{
closed = 1;
nodes = (
"133 117 OFFCURVE",
"173 123 OFFCURVE",
"207 123 CURVE SMOOTH",
"281 123 OFFCURVE",
"341 43 OFFCURVE",
"341 -23 CURVE SMOOTH",
"341 -30 OFFCURVE",
"340 -37 OFFCURVE",
"339 -43 CURVE SMOOTH",
"334 -70 OFFCURVE",
"318 -89 OFFCURVE",
"291 -96 CURVE SMOOTH",
"280 -99 OFFCURVE",
"269 -100 OFFCURVE",
"258 -100 CURVE SMOOTH",
"248 -100 OFFCURVE",
"239 -99 OFFCURVE",
"229 -96 CURVE SMOOTH",
"211 -90 OFFCURVE",
"193 -80 OFFCURVE",
"178 -67 CURVE SMOOTH",
"170 -60 OFFCURVE",
"162 -52 OFFCURVE",
"155 -43 CURVE",
"134 -18 OFFCURVE",
"117 19 OFFCURVE",
"117 53 CURVE SMOOTH",
"117 62 OFFCURVE",
"118 71 OFFCURVE",
"121 80 CURVE SMOOTH"
);
}
);
width = 459;
}
);
note = uniE1D2;
unicode = E1D2;
},
{
glyphname = uniE1D4;
lastChange = "2019-03-26 11:16:14 +0000";
layers = (
{
hints = (
{
horizontal = 1;
place = "{-145, 45}";
type = Stem;
},
{
horizontal = 1;
place = "{97, 48}";
type = Stem;
},
{
place = "{0, 30}";
type = Stem;
},
{
place = "{305, 36}";
type = Stem;
}
);
layerId = "02376AAC-77FF-49DA-9399-294AF7A35492";
paths = (
{
closed = 1;
nodes = (
"54 145 OFFCURVE",
"0 12 OFFCURVE",
"0 -48 CURVE SMOOTH",
"0 -875 LINE",
"30 -875 LINE",
"30 -117 LINE",
"50 -135 OFFCURVE",
"79 -145 OFFCURVE",
"112 -145 CURVE SMOOTH",
"303 -145 OFFCURVE",
"341 10 OFFCURVE",
"341 48 CURVE SMOOTH",
"341 107 OFFCURVE",
"294 145 OFFCURVE",
"227 145 CURVE SMOOTH"
);
},
{
closed = 1;
nodes = (
"148 -88 OFFCURVE",
"112 -100 OFFCURVE",
"87 -100 CURVE SMOOTH",
"63 -100 OFFCURVE",
"49 -88 OFFCURVE",
"41 -74 CURVE SMOOTH",
"37 -67 OFFCURVE",
"34 -59 OFFCURVE",
"34 -51 CURVE SMOOTH",
"34 -26 OFFCURVE",
"59 6 OFFCURVE",
"139 52 CURVE SMOOTH",
"196 85 OFFCURVE",
"232 97 OFFCURVE",
"256 97 CURVE SMOOTH",
"278 97 OFFCURVE",
"290 87 OFFCURVE",
"298 73 CURVE SMOOTH",
"302 66 OFFCURVE",
"305 59 OFFCURVE",
"305 51 CURVE SMOOTH",
"305 28 OFFCURVE",
"281 0 OFFCURVE",
"200 -53 CURVE SMOOTH"
);
}
);
width = 341;
}
);
note = uniE1D4;
unicode = E1D4;
},
{
glyphname = uniE1D3;
lastChange = "2019-03-26 11:17:08 +0000";
layers = (
{
hints = (
{
horizontal = 1;
place = "{-145, 45}";
type = Stem;
},
{
horizontal = 1;
place = "{97, 48}";
type = Stem;
},
{
place = "{0, 34}";
type = Stem;
},
{
place = "{311, 30}";
type = Stem;
}
);
layerId = "02376AAC-77FF-49DA-9399-294AF7A35492";
paths = (
{
closed = 1;
nodes = (
"302 -145 OFFCURVE",
"341 9 OFFCURVE",
"341 48 CURVE SMOOTH",
"341 875 LINE",
"311 875 LINE",
"311 118 LINE",
"291 135 OFFCURVE",
"262 145 OFFCURVE",
"227 145 CURVE SMOOTH",
"54 145 OFFCURVE",
"0 11 OFFCURVE",
"0 -49 CURVE SMOOTH",
"0 -110 OFFCURVE",
"49 -145 OFFCURVE",
"112 -145 CURVE SMOOTH"
);
},
{
closed = 1;
nodes = (
"196 85 OFFCURVE",
"232 97 OFFCURVE",
"256 97 CURVE SMOOTH",
"278 97 OFFCURVE",
"290 87 OFFCURVE",
"298 73 CURVE SMOOTH",
"302 66 OFFCURVE",
"305 59 OFFCURVE",
"305 51 CURVE SMOOTH",
"305 28 OFFCURVE",
"281 0 OFFCURVE",
"200 -53 CURVE SMOOTH",
"148 -88 OFFCURVE",
"112 -100 OFFCURVE",
"87 -100 CURVE SMOOTH",
"63 -100 OFFCURVE",
"49 -88 OFFCURVE",
"41 -74 CURVE SMOOTH",
"37 -67 OFFCURVE",
"34 -59 OFFCURVE",
"34 -51 CURVE SMOOTH",
"34 -26 OFFCURVE",
"59 6 OFFCURVE",
"139 52 CURVE SMOOTH"
);
}
);
width = 341;
}
);
note = uniE1D3;
unicode = E1D3;
},
{
glyphname = uniE1D6;
lastChange = "2019-03-26 11:18:30 +0000";
layers = (
{
hints = (
{
horizontal = 1;
place = "{-875, 1016}";
type = Stem;
},
{
place = "{0, 30}";
type = Stem;
}
);
layerId = "02376AAC-77FF-49DA-9399-294AF7A35492";
paths = (
{
closed = 1;
nodes = (
"99 141 OFFCURVE",
"0 50 OFFCURVE",
"0 -47 CURVE",
"0 -47 OFFCURVE",
"0 -47 OFFCURVE",
"0 -306 CURVE SMOOTH",
"0 -875 LINE",
"30 -875 LINE",
"30 -114 LINE",
"50 -131 OFFCURVE",
"78 -141 OFFCURVE",
"109 -141 CURVE SMOOTH",
"209 -141 OFFCURVE",
"332 -48 OFFCURVE",
"332 47 CURVE SMOOTH",
"332 104 OFFCURVE",
"287 141 OFFCURVE",
"222 141 CURVE SMOOTH"
);
}
);
width = 332;
}
);
note = uniE1D6;
unicode = E1D6;
},
{
glyphname = uniE1D5;
lastChange = "2019-03-26 11:19:23 +0000";
layers = (
{
hints = (
{
horizontal = 1;
place = "{-141, 1016}";
type = Stem;
},
{
place = "{302, 30}";
type = Stem;
}
);
layerId = "02376AAC-77FF-49DA-9399-294AF7A35492";
paths = (
{
closed = 1;
nodes = (
"302 115 LINE",
"283 132 OFFCURVE",
"255 141 OFFCURVE",
"222 141 CURVE SMOOTH",
"99 141 OFFCURVE",
"0 50 OFFCURVE",
"0 -47 CURVE SMOOTH",
"0 -106 OFFCURVE",
"48 -141 OFFCURVE",
"109 -141 CURVE SMOOTH",
"209 -141 OFFCURVE",
"332 -48 OFFCURVE",
"332 47 CURVE SMOOTH",
"332 875 LINE",
"302 875 LINE"
);
}
);
width = 332;
}
);
note = uniE1D5;
unicode = E1D5;
},
{
glyphname = uniE1D8;
lastChange = "2019-03-26 11:46:33 +0000";
layers = (
{
hints = (
{
horizontal = 1;
place = "{-882, 1023}";
type = Stem;
},
{
place = "{0, 30}";
type = Stem;
},
{
place = "{261, 45}";
type = Stem;
}
);
layerId = "02376AAC-77FF-49DA-9399-294AF7A35492";
paths = (
{
closed = 1;
nodes = (
"309 -35 OFFCURVE",
"332 6 OFFCURVE",
"332 47 CURVE SMOOTH",
"332 104 OFFCURVE",
"287 141 OFFCURVE",
"222 141 CURVE SMOOTH",
"99 141 OFFCURVE",
"0 50 OFFCURVE",
"0 -47 CURVE",
"0 -47 OFFCURVE",
"0 -47 OFFCURVE",
"0 -867 CURVE SMOOTH",
"0 -879 LINE",
"3 -879 LINE",
"5 -881 OFFCURVE",
"8 -882 OFFCURVE",
"11 -882 CURVE SMOOTH",
"19 -882 OFFCURVE",
"24 -881 OFFCURVE",
"29 -879 CURVE",
"30 -879 LINE",
"30 -878 LINE",
"36 -875 OFFCURVE",
"39 -869 OFFCURVE",
"40 -860 CURVE",
"57 -765 OFFCURVE",
"131 -678 OFFCURVE",
"182 -599 CURVE SMOOTH",
"245 -500 OFFCURVE",
"306 -381 OFFCURVE",
"306 -256 CURVE SMOOTH",
"306 -178 OFFCURVE",
"286 -107 OFFCURVE",
"278 -75 CURVE",
"277 -72 OFFCURVE",
"276 -70 OFFCURVE",
"275 -68 CURVE"
);
},
{
closed = 1;
nodes = (
"187 -500 OFFCURVE",
"142 -574 OFFCURVE",
"30 -621 CURVE",
"30 -114 LINE",
"50 -131 OFFCURVE",
"78 -141 OFFCURVE",
"109 -141 CURVE SMOOTH",
"152 -141 OFFCURVE",
"198 -124 OFFCURVE",
"237 -98 CURVE",
"238 -101 OFFCURVE",
"239 -104 OFFCURVE",
"240 -108 CURVE",
"254 -150 OFFCURVE",
"261 -200 OFFCURVE",
"261 -245 CURVE SMOOTH",
"261 -304 OFFCURVE",
"236 -388 OFFCURVE",
"221 -422 CURVE SMOOTH"
);
}
);
width = 332;
}
);
note = uniE1D8;
unicode = E1D8;
},
{
glyphname = uniE1D7;
lastChange = "2019-03-26 11:47:11 +0000";
layers = (
{
hints = (
{
horizontal = 1;
place = "{-138, 1011}";
type = Stem;
},
{
place = "{302, 30}";
type = Stem;
},
{
place = "{523, 43}";
type = Stem;
}
);
layerId = "02376AAC-77FF-49DA-9399-294AF7A35492";
paths = (
{
closed = 1;
nodes = (
"400 673 OFFCURVE",
"358 755 OFFCURVE",
"342 851 CURVE SMOOTH",
"339 867 OFFCURVE",
"331 873 OFFCURVE",
"312 873 CURVE SMOOTH",
"307 873 OFFCURVE",
"303 871 OFFCURVE",
"302 864 CURVE",
"302 864 LINE",
"302 863 LINE SMOOTH",
"302 862 OFFCURVE",
"302 860 OFFCURVE",
"302 858 CURVE SMOOTH",
"302 623 LINE",
"302 623 OFFCURVE",
"302 623 OFFCURVE",
"302 623 CURVE",
"302 118 LINE",
"283 135 OFFCURVE",
"255 144 OFFCURVE",
"222 144 CURVE SMOOTH",
"99 144 OFFCURVE",
"0 53 OFFCURVE",
"0 -44 CURVE SMOOTH",
"0 -103 OFFCURVE",
"48 -138 OFFCURVE",
"109 -138 CURVE SMOOTH",
"209 -138 OFFCURVE",
"332 -45 OFFCURVE",
"332 50 CURVE SMOOTH",
"332 611 LINE",
"394 573 OFFCURVE",
"468 463 OFFCURVE",
"499 390 CURVE SMOOTH",
"514 356 OFFCURVE",
"523 299 OFFCURVE",
"523 240 CURVE SMOOTH",
"523 195 OFFCURVE",
"516 148 OFFCURVE",
"499 103 CURVE",
"497 97 OFFCURVE",
"496 92 OFFCURVE",
"496 88 CURVE SMOOTH",
"496 72 OFFCURVE",
"506 63 OFFCURVE",
"512 59 CURVE",
"514 58 LINE",
"523 57 OFFCURVE",
"535 61 OFFCURVE",
"540 78 CURVE",
"540 78 OFFCURVE",
"566 173 OFFCURVE",
"566 251 CURVE SMOOTH",
"566 376 OFFCURVE",
"514 494 OFFCURVE",
"451 594 CURVE SMOOTH"
);
}
);
width = 566;
}
);
note = uniE1D7;
unicode = E1D7;
},
{
glyphname = uniE561;
lastChange = "2019-03-26 12:04:42 +0000";
layers = (
{
hints = (
{
horizontal = 1;
place = "{-525, 608}";
type = Stem;
},
{
place = "{0, 23}";
type = Stem;
},
{
place = "{127, 29}";
type = Stem;
},
{
horizontal = 1;
place = "{-83, 166}";
type = Stem;
}
);
layerId = "02376AAC-77FF-49DA-9399-294AF7A35492";
paths = (
{
closed = 1;
nodes = (
"115 -343 LINE",
"140 -300 OFFCURVE",
"156 -253 OFFCURVE",
"156 -204 CURVE SMOOTH",
"156 -166 OFFCURVE",
"137 -105 OFFCURVE",
"135 -100 CURVE",
"131 -93 OFFCURVE",
"127 -90 OFFCURVE",
"123 -90 CURVE SMOOTH",
"119 -90 LINE",
"116 -92 OFFCURVE",
"110 -97 OFFCURVE",
"110 -105 CURVE SMOOTH",
"110 -107 OFFCURVE",
"110 -109 OFFCURVE",
"112 -112 CURVE",
"122 -138 OFFCURVE",
"127 -170 OFFCURVE",
"127 -199 CURVE SMOOTH",
"127 -231 OFFCURVE",
"122 -260 OFFCURVE",
"116 -277 CURVE SMOOTH",
"109 -297 OFFCURVE",
"100 -312 OFFCURVE",
"91 -324 CURVE",
"23 -272 LINE",
"23 -72 LINE",
"34 -79 OFFCURVE",
"48 -83 OFFCURVE",
"64 -83 CURVE SMOOTH",
"122 -83 OFFCURVE",
"195 -28 OFFCURVE",
"195 28 CURVE SMOOTH",
"195 62 OFFCURVE",
"169 83 OFFCURVE",
"130 83 CURVE SMOOTH",
"59 83 OFFCURVE",
"2 32 OFFCURVE",
"0 -24 CURVE",
"0 -254 LINE",
"-58 -210 LINE",
"-61 -208 OFFCURVE",
"-64 -207 OFFCURVE",
"-68 -207 CURVE SMOOTH",
"-73 -207 OFFCURVE",
"-77 -209 OFFCURVE",
"-80 -213 CURVE",
"-83 -216 OFFCURVE",
"-84 -219 OFFCURVE",
"-84 -223 CURVE SMOOTH",
"-84 -228 OFFCURVE",
"-82 -233 OFFCURVE",
"-77 -236 CURVE",
"0 -295 LINE",
"0 -516 LINE SMOOTH",
"0 -522 OFFCURVE",
"5 -525 OFFCURVE",
"8 -525 CURVE SMOOTH",
"13 -525 OFFCURVE",
"19 -517 OFFCURVE",
"20 -511 CURVE",
"30 -462 OFFCURVE",
"58 -423 OFFCURVE",
"88 -384 CURVE",
"98 -370 LINE",
"164 -421 LINE",
"167 -423 OFFCURVE",
"171 -424 OFFCURVE",
"174 -424 CURVE SMOOTH",
"179 -424 OFFCURVE",
"183 -422 OFFCURVE",
"186 -418 CURVE",
"188 -415 OFFCURVE",
"189 -411 OFFCURVE",
"189 -408 CURVE SMOOTH",
"189 -403 OFFCURVE",
"187 -398 OFFCURVE",
"183 -395 CURVE SMOOTH"
);
},
{
closed = 1;
nodes = (
"23 -313 LINE",
"70 -348 LINE",
"53 -363 OFFCURVE",
"36 -369 OFFCURVE",
"23 -372 CURVE"
);
}
);
width = 195;
}
);
note = uniE561;
unicode = E561;
},
{
glyphname = uniE560;
lastChange = "2019-03-26 12:05:31 +0000";
layers = (
{
hints = (
{
horizontal = 1;
place = "{-83, 607}";
type = Stem;
},
{
place = "{172, 23}";
type = Stem;
},
{
place = "{298, 25}";
type = Stem;
},
{
horizontal = 1;
place = "{-83, 165}";
type = Stem;
}
);
layerId = "02376AAC-77FF-49DA-9399-294AF7A35492";
paths = (
{
closed = 1;
nodes = (
"350 390 OFFCURVE",
"345 393 OFFCURVE",
"340 393 CURVE SMOOTH",
"337 393 OFFCURVE",
"334 391 OFFCURVE",
"331 389 CURVE",
"279 350 LINE",
"272 361 OFFCURVE",
"265 373 OFFCURVE",
"257 383 CURVE",
"229 424 OFFCURVE",
"205 466 OFFCURVE",
"195 514 CURVE",
"194 523 OFFCURVE",
"188 524 OFFCURVE",
"184 524 CURVE SMOOTH",
"179 524 LINE SMOOTH",
"175 524 OFFCURVE",
"172 524 OFFCURVE",
"172 518 CURVE SMOOTH",
"172 267 LINE",
"92 206 LINE SMOOTH",
"88 203 OFFCURVE",
"85 198 OFFCURVE",
"85 193 CURVE SMOOTH",
"85 190 OFFCURVE",
"87 187 OFFCURVE",
"89 184 CURVE",
"92 180 OFFCURVE",
"97 177 OFFCURVE",
"102 177 CURVE SMOOTH",
"105 177 OFFCURVE",
"108 178 OFFCURVE",
"111 181 CURVE",
"172 227 LINE",
"172 71 LINE",
"161 78 OFFCURVE",
"147 82 OFFCURVE",
"131 82 CURVE SMOOTH",
"58 82 OFFCURVE",
"0 29 OFFCURVE",
"0 -28 CURVE SMOOTH",
"0 -63 OFFCURVE",
"28 -83 OFFCURVE",
"64 -83 CURVE SMOOTH",
"121 -83 OFFCURVE",
"191 -32 OFFCURVE",
"195 22 CURVE",
"195 245 LINE",
"274 306 LINE",
"278 298 OFFCURVE",
"282 290 OFFCURVE",
"285 281 CURVE",
"292 263 OFFCURVE",
"298 235 OFFCURVE",
"298 205 CURVE SMOOTH",
"298 182 OFFCURVE",
"294 158 OFFCURVE",
"285 136 CURVE",
"284 133 OFFCURVE",
"283 130 OFFCURVE",
"283 128 CURVE SMOOTH",
"283 120 OFFCURVE",
"288 115 OFFCURVE",
"292 113 CURVE",
"293 112 OFFCURVE",
"295 112 OFFCURVE",
"296 112 CURVE SMOOTH",
"300 112 OFFCURVE",
"305 115 OFFCURVE",
"308 123 CURVE",
"311 128 OFFCURVE",
"323 173 OFFCURVE",
"323 206 CURVE SMOOTH",
"323 210 LINE",
"321 249 OFFCURVE",
"311 286 OFFCURVE",
"294 321 CURVE",
"350 364 LINE SMOOTH",
"354 367 OFFCURVE",
"357 372 OFFCURVE",
"357 377 CURVE SMOOTH",
"357 380 OFFCURVE",
"355 383 OFFCURVE",
"353 386 CURVE"
);
},
{
closed = 1;
nodes = (
"195 285 LINE",
"195 373 LINE",
"212 369 OFFCURVE",
"236 359 OFFCURVE",
"257 333 CURVE"
);
}
);
width = 357;
}
);
note = uniE560;
unicode = E560;
},
{
glyphname = uniE1DA;
lastChange = "2019-03-26 12:16:48 +0000";
layers = (
{
hints = (
{
horizontal = 1;
place = "{-883, 1024}";
type = Stem;
},
{
place = "{0, 30}";
type = Stem;
},
{
place = "{250, 42}";
type = Stem;
},
{
place = "{248, 38}";
type = Stem;
}
);
layerId = "02376AAC-77FF-49DA-9399-294AF7A35492";
paths = (
{
closed = 1;
nodes = (
"280 -76 OFFCURVE",
"278 -71 OFFCURVE",
"276 -67 CURVE",
"310 -35 OFFCURVE",
"332 6 OFFCURVE",
"332 47 CURVE SMOOTH",
"332 104 OFFCURVE",
"287 141 OFFCURVE",
"222 141 CURVE SMOOTH",
"99 141 OFFCURVE",
"0 50 OFFCURVE",
"0 -47 CURVE",
"0 -47 OFFCURVE",
"0 -47 OFFCURVE",
"0 -879 CURVE",
"1 -879 LINE",
"1 -882 LINE",
"1 -882 OFFCURVE",
"12 -883 OFFCURVE",
"18 -883 CURVE SMOOTH",
"24 -883 OFFCURVE",
"36 -881 OFFCURVE",
"38 -870 CURVE SMOOTH",
"62 -716 OFFCURVE",
"259 -673 OFFCURVE",
"283 -516 CURVE SMOOTH",
"285 -505 OFFCURVE",
"286 -493 OFFCURVE",
"286 -480 CURVE SMOOTH",
"286 -419 OFFCURVE",
"264 -359 OFFCURVE",
"261 -353 CURVE SMOOTH",
"260 -351 OFFCURVE",
"260 -349 OFFCURVE",
"260 -346 CURVE SMOOTH",
"260 -342 OFFCURVE",
"261 -340 OFFCURVE",
"261 -337 CURVE",
"297 -262 OFFCURVE",
"298 -164 OFFCURVE",
"282 -84 CURVE"
);
},
{
closed = 1;
nodes = (
"188 -608 OFFCURVE",
"124 -664 OFFCURVE",
"63 -664 CURVE SMOOTH",
"55 -664 LINE SMOOTH",
"47 -664 OFFCURVE",
"41 -659 OFFCURVE",
"41 -654 CURVE SMOOTH",
"41 -653 OFFCURVE",
"41 -652 OFFCURVE",
"42 -651 CURVE",
"63 -569 OFFCURVE",
"119 -546 OFFCURVE",
"166 -491 CURVE SMOOTH",
"187 -468 OFFCURVE",
"204 -448 OFFCURVE",
"220 -422 CURVE",
"222 -419 OFFCURVE",
"224 -418 OFFCURVE",
"227 -418 CURVE SMOOTH",
"232 -418 OFFCURVE",
"239 -421 OFFCURVE",
"240 -425 CURVE",
"245 -432 OFFCURVE",
"245 -442 OFFCURVE",
"247 -450 CURVE",
"248 -457 OFFCURVE",
"248 -464 OFFCURVE",
"248 -470 CURVE SMOOTH",
"248 -503 OFFCURVE",
"239 -533 OFFCURVE",
"221 -559 CURVE SMOOTH"
);
},
{
closed = 1;
nodes = (
"158 -464 OFFCURVE",
"88 -481 OFFCURVE",
"30 -485 CURVE",
"30 -114 LINE",
"50 -131 OFFCURVE",
"78 -141 OFFCURVE",
"109 -141 CURVE SMOOTH",
"153 -141 OFFCURVE",
"202 -123 OFFCURVE",
"242 -95 CURVE",
"256 -177 OFFCURVE",
"255 -265 OFFCURVE",
"218 -341 CURVE SMOOTH"
);
}
);
width = 332;
}
);
note = uniE1DA;
unicode = E1DA;
},
{
glyphname = uniE1D9;
lastChange = "2019-03-26 12:17:24 +0000";
layers = (
{
hints = (
{
horizontal = 1;
place = "{-138, 1011}";
type = Stem;
},
{
place = "{302, 30}";
type = Stem;
},
{
place = "{541, 40}";
type = Stem;
},
{
place = "{539, 38}";
type = Stem;
}
);
layerId = "02376AAC-77FF-49DA-9399-294AF7A35492";
paths = (
{
closed = 1;
nodes = (
"552 330 OFFCURVE",
"551 332 OFFCURVE",
"551 336 CURVE SMOOTH",
"551 338 OFFCURVE",
"551 340 OFFCURVE",
"552 343 CURVE",
"555 349 OFFCURVE",
"577 409 OFFCURVE",
"577 470 CURVE SMOOTH",
"577 483 OFFCURVE",
"576 494 OFFCURVE",
"574 506 CURVE SMOOTH",
"564 574 OFFCURVE",
"538 602 OFFCURVE",
"466 680 CURVE SMOOTH",
"412 738 OFFCURVE",
"356 754 OFFCURVE",
"339 860 CURVE SMOOTH",
"337 871 OFFCURVE",
"325 873 OFFCURVE",
"319 873 CURVE SMOOTH",
"313 873 OFFCURVE",
"302 872 OFFCURVE",
"302 872 CURVE",
"302 475 LINE",
"302 475 LINE",
"302 118 LINE",
"283 135 OFFCURVE",
"255 144 OFFCURVE",
"222 144 CURVE SMOOTH",
"99 144 OFFCURVE",
"0 53 OFFCURVE",
"0 -44 CURVE SMOOTH",
"0 -103 OFFCURVE",
"48 -138 OFFCURVE",
"109 -138 CURVE SMOOTH",
"209 -138 OFFCURVE",
"332 -45 OFFCURVE",
"332 50 CURVE SMOOTH",
"332 474 LINE",
"387 470 OFFCURVE",
"449 453 OFFCURVE",
"509 331 CURVE SMOOTH",
"532 283 OFFCURVE",
"541 234 OFFCURVE",
"541 182 CURVE SMOOTH",
"541 153 OFFCURVE",
"538 123 OFFCURVE",
"533 93 CURVE",
"532 89 OFFCURVE",
"532 87 OFFCURVE",
"532 84 CURVE SMOOTH",
"532 70 OFFCURVE",
"539 62 OFFCURVE",
"546 60 CURVE",
"549 59 OFFCURVE",
"551 58 OFFCURVE",
"554 58 CURVE SMOOTH",
"561 58 OFFCURVE",
"568 62 OFFCURVE",
"574 75 CURVE",
"578 80 OFFCURVE",
"581 137 OFFCURVE",
"581 185 CURVE SMOOTH",
"581 207 LINE SMOOTH",
"581 249 OFFCURVE",
"570 290 OFFCURVE",
"552 327 CURVE"
);
},
{
closed = 1;
nodes = (
"536 432 OFFCURVE",
"536 422 OFFCURVE",
"531 414 CURVE",
"530 411 OFFCURVE",
"523 408 OFFCURVE",
"518 408 CURVE SMOOTH",
"515 408 OFFCURVE",
"513 409 OFFCURVE",
"511 412 CURVE SMOOTH",
"495 437 OFFCURVE",
"478 457 OFFCURVE",
"457 481 CURVE SMOOTH",
"410 535 OFFCURVE",
"364 559 OFFCURVE",
"343 641 CURVE",
"342 642 OFFCURVE",
"342 643 OFFCURVE",
"342 644 CURVE SMOOTH",
"342 648 OFFCURVE",
"348 654 OFFCURVE",
"356 654 CURVE SMOOTH",
"364 654 LINE SMOOTH",
"425 654 OFFCURVE",
"479 598 OFFCURVE",
"512 549 CURVE SMOOTH",
"530 523 OFFCURVE",
"539 492 OFFCURVE",
"539 460 CURVE SMOOTH",
"539 453 OFFCURVE",
"539 447 OFFCURVE",
"538 440 CURVE"
);
}
);
width = 581;
}
);
note = uniE1D9;
unicode = E1D9;
},
{
glyphname = uniE1DC;
lastChange = "2019-03-26 13:38:30 +0000";
layers = (
{
hints = (
{
horizontal = 1;
place = "{-1048, 1189}";
type = Stem;
},
{
place = "{0, 30}";
type = Stem;
},
{
place = "{230, 37}";
type = Stem;
},
{
place = "{232, 41}";
type = Stem;
}
);
layerId = "02376AAC-77FF-49DA-9399-294AF7A35492";
paths = (
{
closed = 1;
nodes = (
"99 141 OFFCURVE",
"0 50 OFFCURVE",
"0 -47 CURVE SMOOTH",
"0 -1035 LINE",
"0 -1035 OFFCURVE",
"6 -1048 OFFCURVE",
"12 -1048 CURVE SMOOTH",
"19 -1048 OFFCURVE",
"32 -1037 OFFCURVE",
"33 -1028 CURVE",
"50 -924 OFFCURVE",
"107 -908 OFFCURVE",
"159 -851 CURVE SMOOTH",
"229 -775 OFFCURVE",
"253 -747 OFFCURVE",
"264 -683 CURVE",
"266 -674 OFFCURVE",
"266 -664 OFFCURVE",
"266 -654 CURVE SMOOTH",
"266 -611 OFFCURVE",
"253 -567 OFFCURVE",
"244 -540 CURVE",
"254 -522 OFFCURVE",
"260 -502 OFFCURVE",
"264 -478 CURVE SMOOTH",
"266 -465 OFFCURVE",
"267 -452 OFFCURVE",
"267 -439 CURVE SMOOTH",
"267 -387 OFFCURVE",
"251 -344 OFFCURVE",
"247 -334 CURVE",
"247 -331 OFFCURVE",
"244 -328 OFFCURVE",
"244 -325 CURVE SMOOTH",
"244 -323 OFFCURVE",
"245 -321 OFFCURVE",
"247 -318 CURVE",
"251 -311 LINE",
"264 -286 OFFCURVE",
"269 -275 OFFCURVE",
"273 -211 CURVE",
"273 -200 LINE SMOOTH",
"273 -157 OFFCURVE",
"260 -104 OFFCURVE",
"254 -86 CURVE",
"299 -50 OFFCURVE",
"332 -2 OFFCURVE",
"332 47 CURVE SMOOTH",
"332 104 OFFCURVE",
"287 141 OFFCURVE",
"222 141 CURVE SMOOTH"
);
},
{
closed = 1;
nodes = (
"232 -236 OFFCURVE",
"224 -265 OFFCURVE",
"201 -306 CURVE SMOOTH",
"138 -419 OFFCURVE",
"82 -439 OFFCURVE",
"30 -444 CURVE",
"30 -114 LINE",
"50 -131 OFFCURVE",
"78 -141 OFFCURVE",
"109 -141 CURVE SMOOTH",
"143 -141 OFFCURVE",
"180 -130 OFFCURVE",
"214 -111 CURVE",
"222 -149 OFFCURVE",
"232 -177 OFFCURVE",
"232 -208 CURVE SMOOTH"
);
},
{
closed = 1;
nodes = (
"183 -620 OFFCURVE",
"201 -600 OFFCURVE",
"215 -582 CURVE",
"221 -601 OFFCURVE",
"226 -622 OFFCURVE",
"229 -633 CURVE",
"230 -640 OFFCURVE",
"232 -646 OFFCURVE",
"232 -654 CURVE SMOOTH",
"232 -667 OFFCURVE",
"228 -683 OFFCURVE",
"216 -704 CURVE SMOOTH",
"159 -800 OFFCURVE",
"98 -826 OFFCURVE",
"41 -826 CURVE",
"39 -825 OFFCURVE",
"39 -824 OFFCURVE",
"39 -823 CURVE",
"56 -719 OFFCURVE",
"107 -703 OFFCURVE",
"159 -646 CURVE SMOOTH"
);
},
{
closed = 1;
nodes = (
"171 -430 OFFCURVE",
"187 -411 OFFCURVE",
"203 -386 CURVE SMOOTH",
"205 -383 OFFCURVE",
"208 -382 OFFCURVE",
"211 -382 CURVE SMOOTH",
"216 -382 OFFCURVE",
"222 -385 OFFCURVE",
"223 -388 CURVE",
"226 -395 OFFCURVE",
"226 -403 OFFCURVE",
"228 -411 CURVE",
"229 -419 OFFCURVE",
"230 -428 OFFCURVE",
"230 -436 CURVE SMOOTH",
"230 -466 OFFCURVE",
"220 -495 OFFCURVE",
"203 -520 CURVE SMOOTH",
"172 -568 OFFCURVE",
"119 -621 OFFCURVE",
"57 -621 CURVE SMOOTH",
"52 -621 LINE SMOOTH",
"43 -621 OFFCURVE",
"39 -613 OFFCURVE",
"39 -608 CURVE",
"60 -528 OFFCURVE",
"106 -506 OFFCURVE",
"151 -453 CURVE SMOOTH"
);
}
);
width = 332;
}
);
note = uniE1DC;
unicode = E1DC;
},
{
glyphname = uniE1DB;
lastChange = "2019-03-26 13:39:15 +0000";
layers = (
{
hints = (
{
horizontal = 1;
place = "{-138, 1161}";
type = Stem;
},
{
place = "{302, 29}";
type = Stem;
},
{
place = "{526, 37}";
type = Stem;
},
{
place = "{523, 36}";
type = Stem;
},
{
horizontal = 1;
place = "{1011, 12}";
type = Stem;
}
);
layerId = "02376AAC-77FF-49DA-9399-294AF7A35492";
paths = (
{
closed = 1;
nodes = (
"560 240 OFFCURVE",
"551 278 OFFCURVE",
"536 314 CURVE",
"535 316 OFFCURVE",
"535 318 OFFCURVE",
"535 321 CURVE SMOOTH",
"535 323 OFFCURVE",
"535 325 OFFCURVE",
"536 327 CURVE",
"538 334 OFFCURVE",
"559 389 OFFCURVE",
"559 446 CURVE SMOOTH",
"559 458 OFFCURVE",
"558 469 OFFCURVE",
"556 481 CURVE SMOOTH",
"552 504 OFFCURVE",
"546 522 OFFCURVE",
"538 539 CURVE",
"547 565 OFFCURVE",
"558 606 OFFCURVE",
"558 645 CURVE SMOOTH",
"558 655 OFFCURVE",
"558 664 OFFCURVE",
"556 673 CURVE",
"545 734 OFFCURVE",
"522 761 OFFCURVE",
"455 834 CURVE SMOOTH",
"405 888 OFFCURVE",
"351 904 OFFCURVE",
"334 1004 CURVE",
"333 1013 OFFCURVE",
"320 1023 OFFCURVE",
"314 1023 CURVE SMOOTH",
"308 1023 OFFCURVE",
"302 1011 OFFCURVE",
"302 1011 CURVE",
"302 118 LINE",
"282 135 OFFCURVE",
"254 144 OFFCURVE",
"222 144 CURVE SMOOTH",
"99 144 OFFCURVE",
"0 53 OFFCURVE",
"0 -44 CURVE SMOOTH",
"0 -103 OFFCURVE",
"48 -138 OFFCURVE",
"109 -138 CURVE SMOOTH",
"208 -138 OFFCURVE",
"331 -45 OFFCURVE",
"331 50 CURVE SMOOTH",
"331 450 LINE",
"383 446 OFFCURVE",
"440 429 OFFCURVE",
"495 317 CURVE SMOOTH",
"517 273 OFFCURVE",
"526 228 OFFCURVE",
"526 180 CURVE SMOOTH",
"526 152 OFFCURVE",
"523 124 OFFCURVE",
"518 95 CURVE",
"518 92 OFFCURVE",
"517 90 OFFCURVE",
"517 88 CURVE SMOOTH",
"517 76 OFFCURVE",
"523 67 OFFCURVE",
"530 64 CURVE",
"532 63 OFFCURVE",
"534 62 OFFCURVE",
"536 62 CURVE SMOOTH",
"542 62 OFFCURVE",
"549 67 OFFCURVE",
"556 78 CURVE",
"559 84 OFFCURVE",
"563 130 OFFCURVE",
"563 173 CURVE SMOOTH",
"563 183 OFFCURVE",
"562 192 OFFCURVE",
"562 201 CURVE"
);
},
{
closed = 1;
nodes = (
"519 410 OFFCURVE",
"519 402 OFFCURVE",
"516 395 CURVE",
"515 392 OFFCURVE",
"510 389 OFFCURVE",
"505 389 CURVE SMOOTH",
"502 389 OFFCURVE",
"499 390 OFFCURVE",
"498 393 CURVE",
"483 415 OFFCURVE",
"469 432 OFFCURVE",
"452 452 CURVE",
"447 457 LINE",
"404 508 OFFCURVE",
"360 529 OFFCURVE",
"340 606 CURVE",
"340 607 OFFCURVE",
"347 618 OFFCURVE",
"353 619 CURVE",
"416 619 OFFCURVE",
"467 568 OFFCURVE",
"498 522 CURVE SMOOTH",
"514 498 OFFCURVE",
"523 471 OFFCURVE",
"523 442 CURVE SMOOTH",
"523 434 OFFCURVE",
"522 426 OFFCURVE",
"521 418 CURVE"
);
},
{
closed = 1;
nodes = (
"520 614 OFFCURVE",
"515 597 OFFCURVE",
"510 580 CURVE",
"496 598 OFFCURVE",
"478 617 OFFCURVE",
"455 642 CURVE SMOOTH",
"406 696 OFFCURVE",
"357 713 OFFCURVE",
"341 810 CURVE",
"396 810 OFFCURVE",
"455 786 OFFCURVE",
"510 693 CURVE SMOOTH",
"521 673 OFFCURVE",
"525 658 OFFCURVE",
"525 645 CURVE SMOOTH",
"525 637 OFFCURVE",
"523 631 OFFCURVE",
"522 624 CURVE"
);
}
);
width = 563;
}
);
note = uniE1DB;
unicode = E1DB;
},
{
glyphname = uniE4E3;
lastChange = "2019-03-26 13:48:25 +0000";
layers = (
{
hints = (
{
horizontal = 1;
place = "{-135, 144}";
type = Stem;
},
{
place = "{0, 282}";
type = Stem;
}
);
layerId = "02376AAC-77FF-49DA-9399-294AF7A35492";
paths = (
{
closed = 1;
nodes = (
"282 -17 LINE SMOOTH",
"282 -2 OFFCURVE",
"270 9 OFFCURVE",
"256 9 CURVE SMOOTH",
"26 9 LINE SMOOTH",
"11 9 OFFCURVE",
"0 -2 OFFCURVE",
"0 -17 CURVE SMOOTH",
"0 -109 LINE SMOOTH",
"0 -123 OFFCURVE",
"11 -135 OFFCURVE",
"26 -135 CURVE SMOOTH",
"256 -135 LINE SMOOTH",
"270 -135 OFFCURVE",
"282 -123 OFFCURVE",
"282 -109 CURVE SMOOTH"
);
}
);
width = 283;
}
);
note = uniE4E3;
unicode = E4E3;
},
{
glyphname = uniE4E4;
lastChange = "2019-03-26 13:50:23 +0000";
layers = (
{
hints = (
{
horizontal = 1;
place = "{-2, 144}";
type = Stem;
},
{
place = "{0, 282}";
type = Stem;
}
);
layerId = "02376AAC-77FF-49DA-9399-294AF7A35492";
paths = (
{
closed = 1;
nodes = (
"282 116 LINE SMOOTH",
"282 131 OFFCURVE",
"270 142 OFFCURVE",
"256 142 CURVE SMOOTH",
"26 142 LINE SMOOTH",
"11 142 OFFCURVE",
"0 131 OFFCURVE",
"0 116 CURVE SMOOTH",
"0 24 LINE SMOOTH",
"0 10 OFFCURVE",
"11 -2 OFFCURVE",
"26 -2 CURVE SMOOTH",
"256 -2 LINE SMOOTH",
"270 -2 OFFCURVE",
"282 10 OFFCURVE",
"282 24 CURVE SMOOTH"
);
}
);
width = 283;
}
);
note = uniE4E4;
unicode = E4E4;
},
{
glyphname = uniE4E5;
lastChange = "2019-03-26 15:31:19 +0000";
layers = (
{
hints = (
{
horizontal = 1;
place = "{-375, 37}";
type = Stem;
},
{
place = "{1, 269}";
type = Stem;
},
{
place = "{1, 113}";
type = Stem;
}
);
layerId = "02376AAC-77FF-49DA-9399-294AF7A35492";
paths = (
{
closed = 1;
nodes = (
"78 -38 LINE SMOOTH",
"94 -58 OFFCURVE",
"108 -77 OFFCURVE",
"121 -98 CURVE",
"123 -102 OFFCURVE",
"127 -110 OFFCURVE",
"127 -112 CURVE SMOOTH",
"127 -113 OFFCURVE",
"127 -115 OFFCURVE",
"126 -116 CURVE",
"124 -120 OFFCURVE",
"120 -121 OFFCURVE",
"115 -121 CURVE SMOOTH",
"111 -121 OFFCURVE",
"103 -119 OFFCURVE",
"99 -118 CURVE",
"94 -118 OFFCURVE",
"88 -115 OFFCURVE",
"83 -115 CURVE SMOOTH",
"40 -115 OFFCURVE",
"1 -158 OFFCURVE",
"1 -211 CURVE SMOOTH",
"1 -261 OFFCURVE",
"44 -310 OFFCURVE",
"117 -366 CURVE SMOOTH",
"125 -372 OFFCURVE",
"135 -375 OFFCURVE",
"143 -375 CURVE SMOOTH",
"150 -375 OFFCURVE",
"157 -373 OFFCURVE",
"158 -369 CURVE",
"159 -366 OFFCURVE",
"160 -364 OFFCURVE",
"160 -362 CURVE SMOOTH",
"160 -353 OFFCURVE",
"152 -345 OFFCURVE",
"144 -338 CURVE",
"131 -338 OFFCURVE",
"120 -311 OFFCURVE",
"118 -302 CURVE",
"115 -294 OFFCURVE",
"114 -285 OFFCURVE",
"114 -276 CURVE SMOOTH",
"114 -245 OFFCURVE",
"129 -210 OFFCURVE",
"161 -204 CURVE SMOOTH",
"166 -203 OFFCURVE",
"171 -203 OFFCURVE",
"177 -203 CURVE SMOOTH",
"206 -203 OFFCURVE",
"239 -214 OFFCURVE",
"255 -220 CURVE",
"256 -220 OFFCURVE",
"257 -221 OFFCURVE",
"258 -221 CURVE",
"261 -222 OFFCURVE",
"263 -222 OFFCURVE",
"265 -222 CURVE SMOOTH",
"268 -222 OFFCURVE",
"270 -221 OFFCURVE",
"270 -218 CURVE SMOOTH",
"270 -206 OFFCURVE",
"244 -173 OFFCURVE",
"233 -161 CURVE",
"195 -115 OFFCURVE",
"164 -78 OFFCURVE",
"164 -22 CURVE SMOOTH",
"164 -18 OFFCURVE",
"165 -13 OFFCURVE",
"165 -9 CURVE",
"169 49 OFFCURVE",
"205 97 OFFCURVE",
"231 138 CURVE SMOOTH",
"234 143 OFFCURVE",
"235 148 OFFCURVE",
"235 153 CURVE SMOOTH",
"235 163 OFFCURVE",
"231 172 OFFCURVE",
"231 172 CURVE SMOOTH",
"231 172 OFFCURVE",
"83 348 OFFCURVE",
"66 365 CURVE SMOOTH",
"61 370 OFFCURVE",
"54 373 OFFCURVE",
"48 373 CURVE SMOOTH",
"38 373 OFFCURVE",
"28 366 OFFCURVE",
"28 352 CURVE SMOOTH",
"28 347 OFFCURVE",
"29 342 OFFCURVE",
"32 336 CURVE",
"36 325 OFFCURVE",
"93 274 OFFCURVE",
"93 202 CURVE SMOOTH",
"93 165 OFFCURVE",
"78 122 OFFCURVE",
"33 75 CURVE SMOOTH",
"23 65 OFFCURVE",
"19 54 OFFCURVE",
"19 46 CURVE SMOOTH",
"19 32 OFFCURVE",
"29 22 OFFCURVE",
"29 22 CURVE"
);
}
);
width = 270;
}
);
note = uniE4E5;
unicode = E4E5;
},
{
glyphname = uniE4E6;
lastChange = "2019-03-26 15:31:19 +0000";
layers = (
{
hints = (
{
horizontal = 1;
place = "{-251, 425}";
type = Stem;
},
{
place = "{0, 134}";
type = Stem;
},
{
horizontal = 1;
place = "{39, 135}";
type = Stem;
},
{
horizontal = 1;
place = "{62, 35}";
type = Stem;
}
);
layerId = "02376AAC-77FF-49DA-9399-294AF7A35492";
paths = (
{
closed = 1;
nodes = (
"134 107 LINE SMOOTH",
"134 144 OFFCURVE",
"104 174 OFFCURVE",
"67 174 CURVE SMOOTH",
"30 174 OFFCURVE",
"0 144 OFFCURVE",
"0 107 CURVE SMOOTH",
"0 86 OFFCURVE",
"12 68 OFFCURVE",
"27 56 CURVE",
"36 50 OFFCURVE",
"45 45 OFFCURVE",
"55 43 CURVE",
"63 41 OFFCURVE",
"72 39 OFFCURVE",
"81 39 CURVE SMOOTH",
"95 39 OFFCURVE",
"109 42 OFFCURVE",
"120 46 CURVE",
"134 50 OFFCURVE",
"143 54 OFFCURVE",
"156 61 CURVE SMOOTH",
"158 62 OFFCURVE",
"160 62 OFFCURVE",
"161 62 CURVE SMOOTH",
"165 62 OFFCURVE",
"166 58 OFFCURVE",
"166 53 CURVE SMOOTH",
"166 50 OFFCURVE",
"166 46 OFFCURVE",
"165 42 CURVE",
"162 27 OFFCURVE",
"90 -172 OFFCURVE",
"72 -238 CURVE",
"72 -250 OFFCURVE",
"95 -251 OFFCURVE",
"101 -251 CURVE SMOOTH",
"112 -251 OFFCURVE",
"126 -249 OFFCURVE",
"136 -241 CURVE",
"139 -239 OFFCURVE",
"237 112 OFFCURVE",
"237 112 CURVE",
"241 130 OFFCURVE",
"246 146 OFFCURVE",
"247 151 CURVE",
"247 161 OFFCURVE",
"237 166 OFFCURVE",
"235 167 CURVE",
"233 167 OFFCURVE",
"230 167 OFFCURVE",
"224 163 CURVE",
"217 157 OFFCURVE",
"167 97 OFFCURVE",
"134 97 CURVE"
);
}
);
width = 250;
}
);
note = uniE4E6;
unicode = E4E6;
},
{
glyphname = uniE4E7;
lastChange = "2019-03-26 15:31:19 +0000";
layers = (
{
hints = (
{
horizontal = 1;
place = "{-209, 136}";
type = Stem;
},
{
horizontal = 1;
place = "{43, 136}";
type = Stem;
},
{
place = "{72, 136}";
type = Stem;
},
{
horizontal = 1;
place = "{67, 34}";
type = Stem;
},
{
place = "{0, 136}";
type = Stem;
}
);
layerId = "02376AAC-77FF-49DA-9399-294AF7A35492";
paths = (
{
closed = 1;
nodes = (
"208 111 LINE SMOOTH",
"208 149 OFFCURVE",
"178 179 OFFCURVE",
"140 179 CURVE SMOOTH",
"103 179 OFFCURVE",
"72 149 OFFCURVE",
"72 111 CURVE SMOOTH",
"72 91 OFFCURVE",
"84 72 OFFCURVE",
"100 60 CURVE SMOOTH",
"108 54 OFFCURVE",
"118 49 OFFCURVE",
"128 46 CURVE SMOOTH",
"135 44 OFFCURVE",
"143 43 OFFCURVE",
"152 43 CURVE SMOOTH",
"166 43 OFFCURVE",
"182 46 OFFCURVE",
"194 50 CURVE",
"208 54 OFFCURVE",
"217 58 OFFCURVE",
"230 65 CURVE",
"233 66 OFFCURVE",
"235 67 OFFCURVE",
"237 67 CURVE SMOOTH",
"240 67 OFFCURVE",
"242 65 OFFCURVE",
"242 60 CURVE SMOOTH",
"242 57 OFFCURVE",
"241 52 OFFCURVE",
"239 45 CURVE SMOOTH",
"237 37 OFFCURVE",
"193 -101 OFFCURVE",
"184 -120 CURVE",
"176 -139 OFFCURVE",
"149 -151 OFFCURVE",
"135 -151 CURVE",
"136 -147 OFFCURVE",
"136 -144 OFFCURVE",
"136 -141 CURVE SMOOTH",
"136 -103 OFFCURVE",
"105 -73 OFFCURVE",
"68 -73 CURVE SMOOTH",
"30 -73 OFFCURVE",
"0 -103 OFFCURVE",
"0 -141 CURVE SMOOTH",
"0 -161 OFFCURVE",
"12 -180 OFFCURVE",
"28 -192 CURVE SMOOTH",
"36 -198 OFFCURVE",
"45 -203 OFFCURVE",
"55 -206 CURVE",
"63 -208 OFFCURVE",
"71 -209 OFFCURVE",
"80 -209 CURVE SMOOTH",
"94 -209 OFFCURVE",
"110 -206 OFFCURVE",
"122 -202 CURVE",
"136 -198 OFFCURVE",
"142 -195 OFFCURVE",
"155 -188 CURVE",
"157 -188 OFFCURVE",
"159 -190 OFFCURVE",
"159 -193 CURVE SMOOTH",
"159 -194 OFFCURVE",
"158 -195 OFFCURVE",
"158 -196 CURVE",
"63 -479 LINE",
"63 -480 OFFCURVE",
"62 -481 OFFCURVE",
"62 -482 CURVE SMOOTH",
"62 -490 OFFCURVE",
"71 -500 OFFCURVE",
"93 -500 CURVE SMOOTH",
"122 -500 OFFCURVE",
"127 -488 OFFCURVE",
"131 -477 CURVE",
"247 -96 LINE SMOOTH",
"273 -11 OFFCURVE",
"292 56 OFFCURVE",
"292 56 CURVE SMOOTH",
"292 56 OFFCURVE",
"317 144 OFFCURVE",
"319 157 CURVE",
"319 159 OFFCURVE",
"320 160 OFFCURVE",
"320 161 CURVE SMOOTH",
"320 167 OFFCURVE",
"312 171 OFFCURVE",
"310 172 CURVE",
"305 172 OFFCURVE",
"302 170 OFFCURVE",
"299 168 CURVE",
"292 162 OFFCURVE",
"242 102 OFFCURVE",
"208 101 CURVE"
);
}
);
width = 320;
}
);
note = uniE4E7;
unicode = E4E7;
},
{
glyphname = uniE4E8;
lastChange = "2019-03-26 15:31:19 +0000";
layers = (
{
hints = (
{
horizontal = 1;
place = "{-500, 926}";
type = Stem;
},
{
place = "{0, 363}";
type = Stem;
},
{
horizontal = 1;
place = "{313, 36}";
type = Stem;
},
{
place = "{115, 136}";
type = Stem;
},
{
horizontal = 1;
place = "{290, 136}";
type = Stem;
},
{
place = "{59, 136}";
type = Stem;
},
{
horizontal = 1;
place = "{38, 136}";
type = Stem;
},
{
horizontal = 1;
place = "{-209, 136}";
type = Stem;
},
{
place = "{0, 136}";
type = Stem;
}
);
layerId = "02376AAC-77FF-49DA-9399-294AF7A35492";
paths = (
{
closed = 1;
nodes = (
"348 419 OFFCURVE",
"345 417 OFFCURVE",
"342 415 CURVE SMOOTH",
"335 410 OFFCURVE",
"285 349 OFFCURVE",
"251 349 CURVE",
"251 358 LINE SMOOTH",
"251 396 OFFCURVE",
"221 426 OFFCURVE",
"183 426 CURVE SMOOTH",
"146 426 OFFCURVE",
"115 396 OFFCURVE",
"115 358 CURVE SMOOTH",
"115 338 OFFCURVE",
"127 320 OFFCURVE",
"143 308 CURVE",
"151 301 OFFCURVE",
"161 297 OFFCURVE",
"171 294 CURVE",
"179 292 OFFCURVE",
"187 290 OFFCURVE",
"197 290 CURVE SMOOTH",
"211 290 OFFCURVE",
"226 293 OFFCURVE",
"238 297 CURVE SMOOTH",
"252 302 OFFCURVE",
"260 305 OFFCURVE",
"273 312 CURVE",
"274 313 OFFCURVE",
"276 313 OFFCURVE",
"277 313 CURVE SMOOTH",
"284 313 OFFCURVE",
"288 303 OFFCURVE",
"288 297 CURVE SMOOTH",
"288 296 OFFCURVE",
"287 294 OFFCURVE",
"287 293 CURVE",
"248 133 LINE",
"243 117 OFFCURVE",
"210 97 OFFCURVE",
"194 97 CURVE",
"195 100 OFFCURVE",
"195 103 OFFCURVE",
"195 106 CURVE SMOOTH",
"195 144 OFFCURVE",
"164 174 OFFCURVE",
"127 174 CURVE SMOOTH",
"89 174 OFFCURVE",
"59 144 OFFCURVE",
"59 106 CURVE SMOOTH",
"59 86 OFFCURVE",
"71 68 OFFCURVE",
"87 56 CURVE",
"95 49 OFFCURVE",
"104 45 OFFCURVE",
"114 42 CURVE",
"122 40 OFFCURVE",
"131 38 OFFCURVE",
"141 38 CURVE SMOOTH",
"155 38 OFFCURVE",
"170 41 OFFCURVE",
"181 45 CURVE SMOOTH",
"195 50 OFFCURVE",
"203 53 OFFCURVE",
"216 60 CURVE",
"217 61 OFFCURVE",
"218 61 OFFCURVE",
"219 61 CURVE SMOOTH",
"224 61 OFFCURVE",
"226 53 OFFCURVE",
"226 48 CURVE",
"186 -116 LINE SMOOTH",
"181 -137 OFFCURVE",
"150 -150 OFFCURVE",
"135 -151 CURVE",
"136 -147 OFFCURVE",
"136 -144 OFFCURVE",
"136 -141 CURVE SMOOTH",
"136 -103 OFFCURVE",
"106 -73 OFFCURVE",
"68 -73 CURVE SMOOTH",
"31 -73 OFFCURVE",
"0 -103 OFFCURVE",
"0 -141 CURVE SMOOTH",
"0 -161 OFFCURVE",
"12 -180 OFFCURVE",
"28 -192 CURVE SMOOTH",
"36 -198 OFFCURVE",
"46 -203 OFFCURVE",
"56 -206 CURVE SMOOTH",
"63 -208 OFFCURVE",
"71 -209 OFFCURVE",
"80 -209 CURVE SMOOTH",
"94 -209 OFFCURVE",
"110 -206 OFFCURVE",
"122 -202 CURVE",
"136 -198 OFFCURVE",
"145 -194 OFFCURVE",
"158 -187 CURVE",
"159 -186 OFFCURVE",
"160 -186 OFFCURVE",
"161 -186 CURVE SMOOTH",
"164 -186 OFFCURVE",
"167 -189 OFFCURVE",
"167 -192 CURVE SMOOTH",
"167 -196 OFFCURVE",
"98 -471 OFFCURVE",
"96 -478 CURVE",
"95 -480 OFFCURVE",
"95 -482 OFFCURVE",
"95 -484 CURVE SMOOTH",
"95 -492 OFFCURVE",
"101 -500 OFFCURVE",
"122 -500 CURVE SMOOTH",
"154 -500 OFFCURVE",
"157 -490 OFFCURVE",
"161 -479 CURVE",
"164 -467 OFFCURVE",
"336 303 OFFCURVE",
"336 303 CURVE SMOOTH",
"336 303 OFFCURVE",
"360 392 OFFCURVE",
"362 404 CURVE",
"362 406 OFFCURVE",
"363 407 OFFCURVE",
"363 408 CURVE SMOOTH",
"363 417 OFFCURVE",
"355 419 OFFCURVE",
"353 419 CURVE SMOOTH"
);
}
);
width = 363;
}
);
note = uniE4E8;
unicode = E4E8;
},
{
glyphname = uniE260;
lastChange = "2019-03-27 08:41:13 +0000";
layers = (
{
hints = (
{
horizontal = 1;
place = "{100, 53}";
type = Stem;
},
{
place = "{0, 50}";
type = Stem;
},
{
place = "{157, 69}";
type = Stem;
}
);
layerId = "02376AAC-77FF-49DA-9399-294AF7A35492";
paths = (
{
closed = 1;
nodes = (
"47 -81 OFFCURVE",
"44 -21 OFFCURVE",
"44 19 CURVE SMOOTH",
"44 35 OFFCURVE",
"45 47 OFFCURVE",
"46 51 CURVE",
"50 63 OFFCURVE",
"76 85 OFFCURVE",
"90 93 CURVE SMOOTH",
"99 98 OFFCURVE",
"108 100 OFFCURVE",
"116 100 CURVE SMOOTH",
"126 100 OFFCURVE",
"135 96 OFFCURVE",
"141 89 CURVE SMOOTH",
"151 78 OFFCURVE",
"157 61 OFFCURVE",
"157 42 CURVE SMOOTH",
"157 24 OFFCURVE",
"152 3 OFFCURVE",
"140 -18 CURVE SMOOTH",
"127 -42 OFFCURVE",
"98 -74 OFFCURVE",
"68 -93 CURVE",
"64 -95 OFFCURVE",
"61 -96 OFFCURVE",
"58 -96 CURVE SMOOTH",
"49 -96 OFFCURVE",
"47 -86 OFFCURVE",
"47 -81 CURVE"
);
},
{
closed = 1;
nodes = (
"15 -174 OFFCURVE",
"18 -175 OFFCURVE",
"21 -175 CURVE SMOOTH",
"24 -175 OFFCURVE",
"27 -173 OFFCURVE",
"27 -173 CURVE",
"57 -156 OFFCURVE",
"81 -129 OFFCURVE",
"106 -112 CURVE SMOOTH",
"195 -50 OFFCURVE",
"226 11 OFFCURVE",
"226 57 CURVE SMOOTH",
"226 114 OFFCURVE",
"182 150 OFFCURVE",
"136 153 CURVE",
"129 153 OFFCURVE",
"122 152 OFFCURVE",
"115 150 CURVE SMOOTH",
"104 147 OFFCURVE",
"92 143 OFFCURVE",
"81 136 CURVE",
"75 131 OFFCURVE",
"64 122 OFFCURVE",
"59 122 CURVE SMOOTH",
"57 122 OFFCURVE",
"56 122 OFFCURVE",
"54 123 CURVE",
"47 126 OFFCURVE",
"43 133 OFFCURVE",
"43 140 CURVE",
"44 162 OFFCURVE",
"50 402 OFFCURVE",
"50 422 CURVE SMOOTH",
"50 433 OFFCURVE",
"41 439 OFFCURVE",
"31 439 CURVE SMOOTH",
"17 439 OFFCURVE",
"1 429 OFFCURVE",
"0 411 CURVE",
"0 411 OFFCURVE",
"4 -160 OFFCURVE",
"12 -170 CURVE SMOOTH"
);
}
);
width = 226;
}
);
note = uniE260;
unicode = E260;
},
{
glyphname = uniE261;
lastChange = "2019-03-27 08:41:16 +0000";
layers = (
{
hints = (
{
horizontal = 1;
place = "{-335, 676}";
type = Stem;
},
{
place = "{0, 37}";
type = Stem;
},
{
place = "{131, 37}";
type = Stem;
},
{
horizontal = 1;
place = "{-163, 93}";
type = Stem;
}
);
layerId = "02376AAC-77FF-49DA-9399-294AF7A35492";
paths = (
{
closed = 1;
nodes = (
"37 39 LINE SMOOTH",
"37 53 OFFCURVE",
"98 79 OFFCURVE",
"122 79 CURVE SMOOTH",
"128 79 OFFCURVE",
"131 78 OFFCURVE",
"131 74 CURVE SMOOTH",
"131 -29 LINE SMOOTH",
"131 -47 OFFCURVE",
"74 -70 OFFCURVE",
"49 -70 CURVE SMOOTH",
"42 -70 OFFCURVE",
"37 -68 OFFCURVE",
"37 -64 CURVE SMOOTH"
);
},
{
closed = 1;
nodes = (
"141 181 LINE",
"139 181 OFFCURVE",
"138 180 OFFCURVE",
"137 180 CURVE SMOOTH",
"137 180 OFFCURVE",
"73 157 OFFCURVE",
"47 157 CURVE SMOOTH",
"41 157 OFFCURVE",
"37 158 OFFCURVE",
"37 162 CURVE SMOOTH",
"37 329 LINE SMOOTH",
"37 336 OFFCURVE",
"31 341 OFFCURVE",
"25 341 CURVE SMOOTH",
"12 341 LINE SMOOTH",
"5 341 OFFCURVE",
"0 336 OFFCURVE",
"0 329 CURVE SMOOTH",
"0 -186 LINE SMOOTH",
"0 -192 OFFCURVE",
"3 -195 OFFCURVE",
"8 -195 CURVE SMOOTH",
"9 -195 OFFCURVE",
"11 -194 OFFCURVE",
"12 -194 CURVE",
"12 -194 OFFCURVE",
"14 -194 OFFCURVE",
"15 -193 CURVE",
"29 -187 OFFCURVE",
"85 -163 OFFCURVE",
"114 -163 CURVE SMOOTH",
"124 -163 OFFCURVE",
"131 -166 OFFCURVE",
"131 -174 CURVE SMOOTH",
"131 -323 LINE SMOOTH",
"131 -330 OFFCURVE",
"136 -335 OFFCURVE",
"143 -335 CURVE SMOOTH",
"156 -335 LINE SMOOTH",
"162 -335 OFFCURVE",
"168 -330 OFFCURVE",
"168 -323 CURVE SMOOTH",
"168 179 LINE SMOOTH",
"168 184 OFFCURVE",
"164 187 OFFCURVE",
"160 187 CURVE SMOOTH",
"159 187 OFFCURVE",
"157 187 OFFCURVE",
"156 186 CURVE"
);
}
);
width = 168;
}
);
note = uniE261;
unicode = E261;
},
{
glyphname = uniE262;
lastChange = "2019-03-27 08:41:18 +0000";
layers = (
{
hints = (
{
horizontal = 1;
place = "{-348, 698}";
type = Stem;
},
{
place = "{50, 30}";
type = Stem;
},
{
place = "{168, 30}";
type = Stem;
},
{
place = "{237, 12}";
type = Stem;
}
);
layerId = "02376AAC-77FF-49DA-9399-294AF7A35492";
paths = (
{
closed = 1;
nodes = (
"162 -65 OFFCURVE",
"115 -85 OFFCURVE",
"92 -85 CURVE SMOOTH",
"86 -85 OFFCURVE",
"81 -83 OFFCURVE",
"80 -80 CURVE",
"78 -76 OFFCURVE",
"77 -54 OFFCURVE",
"77 -30 CURVE SMOOTH",
"77 1 OFFCURVE",
"78 36 OFFCURVE",
"80 44 CURVE",
"82 61 OFFCURVE",
"128 82 OFFCURVE",
"153 82 CURVE SMOOTH",
"160 82 OFFCURVE",
"166 80 OFFCURVE",
"168 76 CURVE",
"170 71 OFFCURVE",
"172 46 OFFCURVE",
"172 19 CURVE SMOOTH",
"172 -8 OFFCURVE",
"170 -36 OFFCURVE",
"168 -45 CURVE"
);
},
{
closed = 1;
nodes = (
"237 118 LINE",
"244 121 OFFCURVE",
"249 129 OFFCURVE",
"249 135 CURVE SMOOTH",
"249 206 LINE SMOOTH",
"249 211 OFFCURVE",
"246 214 OFFCURVE",
"242 214 CURVE SMOOTH",
"240 214 OFFCURVE",
"239 214 OFFCURVE",
"237 213 CURVE",
"237 213 OFFCURVE",
"217 205 OFFCURVE",
"212 204 CURVE",
"205 204 OFFCURVE",
"198 209 OFFCURVE",
"198 217 CURVE SMOOTH",
"198 339 LINE SMOOTH",
"198 345 OFFCURVE",
"192 350 OFFCURVE",
"184 350 CURVE SMOOTH",
"174 350 OFFCURVE",
"168 345 OFFCURVE",
"168 339 CURVE SMOOTH",
"168 209 LINE",
"167 199 OFFCURVE",
"164 186 OFFCURVE",
"155 180 CURVE",
"143 173 OFFCURVE",
"109 159 OFFCURVE",
"92 155 CURVE",
"83 155 OFFCURVE",
"80 167 OFFCURVE",
"80 175 CURVE SMOOTH",
"80 295 LINE SMOOTH",
"80 301 OFFCURVE",
"73 306 OFFCURVE",
"66 306 CURVE SMOOTH",
"56 306 OFFCURVE",
"50 301 OFFCURVE",
"50 295 CURVE SMOOTH",
"50 160 LINE SMOOTH",
"50 146 OFFCURVE",
"44 136 OFFCURVE",
"38 133 CURVE SMOOTH",
"32 130 OFFCURVE",
"12 122 OFFCURVE",
"12 122 CURVE",
"5 120 OFFCURVE",
"0 112 OFFCURVE",
"0 106 CURVE SMOOTH",
"0 35 LINE SMOOTH",
"0 29 OFFCURVE",
"3 26 OFFCURVE",
"8 26 CURVE SMOOTH",
"9 26 OFFCURVE",
"11 27 OFFCURVE",
"12 27 CURVE",
"12 27 OFFCURVE",
"27 33 OFFCURVE",
"34 37 CURVE",
"35 37 OFFCURVE",
"36 38 OFFCURVE",
"37 38 CURVE SMOOTH",
"44 38 OFFCURVE",
"50 28 OFFCURVE",
"50 20 CURVE SMOOTH",
"50 -79 LINE SMOOTH",
"50 -90 OFFCURVE",
"45 -99 OFFCURVE",
"39 -102 CURVE",
"33 -104 OFFCURVE",
"12 -113 OFFCURVE",
"12 -113 CURVE",
"5 -115 OFFCURVE",
"0 -123 OFFCURVE",
"0 -129 CURVE SMOOTH",
"0 -200 LINE SMOOTH",
"0 -206 OFFCURVE",
"3 -209 OFFCURVE",
"8 -209 CURVE SMOOTH",
"9 -209 OFFCURVE",
"11 -208 OFFCURVE",
"12 -208 CURVE",
"12 -208 OFFCURVE",
"26 -202 OFFCURVE",
"35 -199 CURVE",
"36 -198 OFFCURVE",
"37 -198 OFFCURVE",
"38 -198 CURVE SMOOTH",
"45 -198 OFFCURVE",
"50 -209 OFFCURVE",
"50 -214 CURVE SMOOTH",
"50 -337 LINE SMOOTH",
"50 -343 OFFCURVE",
"56 -348 OFFCURVE",
"63 -348 CURVE SMOOTH",
"73 -348 OFFCURVE",
"80 -343 OFFCURVE",
"80 -337 CURVE SMOOTH",
"80 -198 LINE SMOOTH",
"80 -185 OFFCURVE",
"85 -178 OFFCURVE",
"90 -176 CURVE SMOOTH",
"151 -151 LINE",
"152 -151 OFFCURVE",
"154 -150 OFFCURVE",
"155 -150 CURVE SMOOTH",
"163 -150 OFFCURVE",
"168 -162 OFFCURVE",
"168 -168 CURVE SMOOTH",
"168 -293 LINE SMOOTH",
"168 -299 OFFCURVE",
"174 -304 OFFCURVE",
"181 -304 CURVE SMOOTH",
"192 -304 OFFCURVE",
"198 -299 OFFCURVE",
"198 -293 CURVE SMOOTH",
"198 -151 LINE SMOOTH",
"198 -143 OFFCURVE",
"202 -131 OFFCURVE",
"209 -128 CURVE SMOOTH",
"216 -125 OFFCURVE",
"237 -117 OFFCURVE",
"237 -117 CURVE",
"244 -114 OFFCURVE",
"249 -106 OFFCURVE",
"249 -100 CURVE SMOOTH",
"249 -29 LINE SMOOTH",
"249 -24 OFFCURVE",
"246 -21 OFFCURVE",
"242 -21 CURVE SMOOTH",
"240 -21 OFFCURVE",
"239 -21 OFFCURVE",
"237 -22 CURVE",
"211 -32 LINE",
"205 -32 OFFCURVE",
"198 -26 OFFCURVE",
"198 -14 CURVE SMOOTH",
"198 79 LINE SMOOTH",
"198 86 OFFCURVE",
"203 105 OFFCURVE",
"211 108 CURVE SMOOTH"
);
}
);
width = 249;
}
);
note = uniE262;
unicode = E262;
},
{
glyphname = uniE263;
lastChange = "2019-03-26 15:51:44 +0000";
layers = (
{
hints = (
{
horizontal = 1;
place = "{-125, 93}";
type = Stem;
},
{
horizontal = 1;
place = "{34, 93}";
type = Stem;
},
{
horizontal = 1;
place = "{-31, 65}";
type = Stem;
}
);
layerId = "02376AAC-77FF-49DA-9399-294AF7A35492";
paths = (
{
closed = 1;
nodes = (
"190 -32 LINE",
"179 -26 OFFCURVE",
"143 -6 OFFCURVE",
"143 1 CURVE SMOOTH",
"143 15 OFFCURVE",
"176 30 OFFCURVE",
"190 35 CURVE",
"194 35 OFFCURVE",
"198 34 OFFCURVE",
"202 34 CURVE SMOOTH",
"218 34 OFFCURVE",
"233 38 OFFCURVE",
"240 44 CURVE",
"245 49 OFFCURVE",
"247 64 OFFCURVE",
"247 80 CURVE SMOOTH",
"247 97 OFFCURVE",
"244 115 OFFCURVE",
"240 120 CURVE SMOOTH",
"236 125 OFFCURVE",
"220 127 OFFCURVE",
"203 127 CURVE SMOOTH",
"185 127 OFFCURVE",
"167 125 OFFCURVE",
"162 120 CURVE",
"158 117 OFFCURVE",
"157 99 OFFCURVE",
"157 81 CURVE",
"152 70 OFFCURVE",
"136 34 OFFCURVE",
"124 34 CURVE SMOOTH",
"110 34 OFFCURVE",
"94 67 OFFCURVE",
"90 81 CURVE",
"90 98 OFFCURVE",
"87 116 OFFCURVE",
"82 120 CURVE",
"78 125 OFFCURVE",
"62 127 OFFCURVE",
"46 127 CURVE SMOOTH",
"29 127 OFFCURVE",
"11 125 OFFCURVE",
"5 120 CURVE",
"2 118 OFFCURVE",
"0 101 OFFCURVE",
"0 83 CURVE SMOOTH",
"0 65 OFFCURVE",
"2 47 OFFCURVE",
"5 44 CURVE",
"12 38 OFFCURVE",
"30 34 OFFCURVE",
"47 34 CURVE SMOOTH",
"51 34 OFFCURVE",
"54 35 OFFCURVE",
"57 35 CURVE",
"68 29 OFFCURVE",
"104 9 OFFCURVE",
"104 2 CURVE SMOOTH",
"104 -11 OFFCURVE",
"72 -27 OFFCURVE",
"58 -32 CURVE",
"48 -32 LINE SMOOTH",
"30 -32 OFFCURVE",
"11 -34 OFFCURVE",
"5 -39 CURVE",
"2 -42 OFFCURVE",
"0 -59 OFFCURVE",
"0 -77 CURVE SMOOTH",
"0 -95 OFFCURVE",
"2 -113 OFFCURVE",
"5 -115 CURVE",
"12 -121 OFFCURVE",
"28 -125 OFFCURVE",
"45 -125 CURVE SMOOTH",
"60 -125 OFFCURVE",
"76 -122 OFFCURVE",
"82 -115 CURVE",
"88 -110 OFFCURVE",
"90 -93 OFFCURVE",
"90 -77 CURVE SMOOTH",
"90 -76 OFFCURVE",
"91 -74 OFFCURVE",
"92 -73 CURVE",
"98 -59 OFFCURVE",
"110 -31 OFFCURVE",
"123 -31 CURVE SMOOTH",
"136 -31 OFFCURVE",
"153 -63 OFFCURVE",
"157 -77 CURVE",
"157 -95 OFFCURVE",
"158 -112 OFFCURVE",
"162 -115 CURVE",
"169 -121 OFFCURVE",
"185 -125 OFFCURVE",
"202 -125 CURVE SMOOTH",
"218 -125 OFFCURVE",
"233 -122 OFFCURVE",
"240 -115 CURVE SMOOTH",
"245 -110 OFFCURVE",
"247 -95 OFFCURVE",
"247 -79 CURVE SMOOTH",
"247 -62 OFFCURVE",
"244 -44 OFFCURVE",
"240 -39 CURVE",
"235 -34 OFFCURVE",
"217 -32 OFFCURVE",
"200 -32 CURVE SMOOTH"
);
}
);
width = 250;
}
);
note = uniE263;
unicode = E263;
},
{
glyphname = uniE030;
lastChange = "2019-03-27 08:40:49 +0000";
layers = (
{
hints = (
{
horizontal = 1;
place = "{0, 21}";
target = up;
type = BottomGhost;
},
{
place = "{0, 36}";
type = Stem;
}
);
layerId = "02376AAC-77FF-49DA-9399-294AF7A35492";
paths = (
{
closed = 1;
nodes = (
"36 0 LINE",
"36 1000 LINE",
"0 1000 LINE",
"0 0 LINE"
);
}
);
width = 36;
}
);
note = uniE030;
unicode = E030;
},
{
glyphname = uniE043;
lastChange = "2018-05-24 12:09:50 +0000";
layers = (
{
layerId = "02376AAC-77FF-49DA-9399-294AF7A35492";
paths = (
{
closed = 1;
nodes = (
"91 -98 OFFCURVE",
"71 -77 OFFCURVE",
"46 -77 CURVE SMOOTH",
"20 -77 OFFCURVE",
"0 -98 OFFCURVE",
"0 -123 CURVE SMOOTH",
"0 -148 OFFCURVE",
"20 -169 OFFCURVE",
"46 -169 CURVE SMOOTH",
"71 -169 OFFCURVE",
"91 -148 OFFCURVE",
"91 -123 CURVE SMOOTH"
);
},
{
closed = 1;
nodes = (
"91 118 OFFCURVE",
"71 139 OFFCURVE",
"46 139 CURVE SMOOTH",
"20 139 OFFCURVE",
"0 118 OFFCURVE",
"0 93 CURVE SMOOTH",
"0 68 OFFCURVE",
"20 47 OFFCURVE",
"46 47 CURVE SMOOTH",
"71 47 OFFCURVE",
"91 68 OFFCURVE",
"91 93 CURVE SMOOTH"
);
}
);
width = 91;
}
);
unicode = E043;
},
{
glyphname = uniE1FC;
lastChange = "2019-03-27 08:43:13 +0000";
layers = (
{
hints = (
{
horizontal = 1;
place = "{-50, 100}";
type = Stem;
},
{
place = "{0, 100}";
type = Stem;
}
);
layerId = "02376AAC-77FF-49DA-9399-294AF7A35492";
paths = (
{
closed = 1;
nodes = (
"100 28 OFFCURVE",
"78 50 OFFCURVE",
"50 50 CURVE SMOOTH",
"22 50 OFFCURVE",
"0 28 OFFCURVE",
"0 0 CURVE SMOOTH",
"0 -28 OFFCURVE",
"22 -50 OFFCURVE",
"50 -50 CURVE SMOOTH",
"78 -50 OFFCURVE",
"100 -28 OFFCURVE",
"100 0 CURVE SMOOTH"
);
}
);
width = 100;
}
);
note = uniE1E7;
unicode = E1E7;
},
{
glyphname = uniE4C0;
lastChange = "2019-03-26 19:46:15 +0000";
layers = (
{
hints = (
{
horizontal = 1;
place = "{-3, 109}";
type = Stem;
},
{
horizontal = 1;
place = "{221, 108}";
type = Stem;
},
{
place = "{249, 109}";
type = Stem;
}
);
layerId = "02376AAC-77FF-49DA-9399-294AF7A35492";
paths = (
{
closed = 1;
nodes = (
"512 221 OFFCURVE",
"555 63 OFFCURVE",
"565 25 CURVE",
"566 22 OFFCURVE",
"566 19 OFFCURVE",
"567 18 CURVE",
"574 4 OFFCURVE",
"578 -3 OFFCURVE",
"588 -3 CURVE SMOOTH",
"597 -3 OFFCURVE",
"602 1 OFFCURVE",
"602 11 CURVE SMOOTH",
"602 14 OFFCURVE",
"602 17 OFFCURVE",
"601 21 CURVE",
"539 327 OFFCURVE",
"330 329 OFFCURVE",
"301 329 CURVE SMOOTH",
"269 329 OFFCURVE",
"62 327 OFFCURVE",
"1 21 CURVE",
"0 17 OFFCURVE",
"0 13 OFFCURVE",
"0 10 CURVE SMOOTH",
"0 0 OFFCURVE",
"5 -3 OFFCURVE",
"13 -3 CURVE SMOOTH",
"22 -3 OFFCURVE",
"27 4 OFFCURVE",
"33 18 CURVE",
"34 19 OFFCURVE",
"35 23 OFFCURVE",
"36 27 CURVE",
"48 68 OFFCURVE",
"93 221 OFFCURVE",
"299 221 CURVE SMOOTH"
);
},
{
closed = 1;
nodes = (
"355 81 OFFCURVE",
"330 106 OFFCURVE",
"300 106 CURVE SMOOTH",
"271 106 OFFCURVE",
"246 81 OFFCURVE",
"246 52 CURVE SMOOTH",
"246 22 OFFCURVE",
"271 -3 OFFCURVE",
"300 -3 CURVE SMOOTH",
"330 -3 OFFCURVE",
"355 22 OFFCURVE",
"355 52 CURVE SMOOTH"
);
}
);
width = 602;
}
);
note = uniE4C0;
unicode = E4C0;
},
{
glyphname = uniE4C1;
lastChange = "2019-03-26 19:46:20 +0000";
layers = (
{
hints = (
{
horizontal = 1;
place = "{-332, 108}";
type = Stem;
},
{
horizontal = 1;
place = "{-109, 109}";
type = Stem;
},
{
place = "{249, 109}";
type = Stem;
}
);
layerId = "02376AAC-77FF-49DA-9399-294AF7A35492";
paths = (
{
closed = 1;
nodes = (
"93 -224 OFFCURVE",
"48 -71 OFFCURVE",
"36 -30 CURVE",
"35 -26 OFFCURVE",
"34 -22 OFFCURVE",
"33 -21 CURVE",
"27 -7 OFFCURVE",
"22 0 OFFCURVE",
"13 0 CURVE SMOOTH",
"5 0 OFFCURVE",
"0 -3 OFFCURVE",
"0 -13 CURVE SMOOTH",
"0 -16 OFFCURVE",
"0 -20 OFFCURVE",
"1 -24 CURVE",
"62 -330 OFFCURVE",
"269 -332 OFFCURVE",
"301 -332 CURVE SMOOTH",
"330 -332 OFFCURVE",
"539 -330 OFFCURVE",
"601 -24 CURVE",
"602 -20 OFFCURVE",
"602 -17 OFFCURVE",
"602 -14 CURVE SMOOTH",
"602 -4 OFFCURVE",
"597 0 OFFCURVE",
"588 0 CURVE SMOOTH",
"578 0 OFFCURVE",
"574 -7 OFFCURVE",
"567 -21 CURVE",
"566 -22 OFFCURVE",
"566 -25 OFFCURVE",
"565 -28 CURVE",
"555 -66 OFFCURVE",
"512 -224 OFFCURVE",
"299 -224 CURVE SMOOTH"
);
},
{
closed = 1;
nodes = (
"355 -25 OFFCURVE",
"330 0 OFFCURVE",
"300 0 CURVE SMOOTH",
"271 0 OFFCURVE",
"246 -25 OFFCURVE",
"246 -55 CURVE SMOOTH",
"246 -84 OFFCURVE",
"271 -109 OFFCURVE",
"300 -109 CURVE SMOOTH",
"330 -109 OFFCURVE",
"355 -84 OFFCURVE",
"355 -55 CURVE SMOOTH"
);
}
);
width = 602;
}
);
note = uniE4C1;
unicode = E4C1;
},
{
glyphname = uniE8E4;
lastChange = "2019-03-27 08:26:57 +0000";
layers = (
{
layerId = "02376AAC-77FF-49DA-9399-294AF7A35492";
paths = (
{
closed = 1;
nodes = (
"931 498 OFFCURVE",
"914 501 OFFCURVE",
"920 522 CURVE",
"926 540 OFFCURVE",
"939 552 OFFCURVE",
"950 566 CURVE",
"363 522 OFFCURVE",
"0 5 OFFCURVE",
"0 0 CURVE",
"24 0 LINE",
"49 0 OFFCURVE",
"359 381 OFFCURVE",
"925 409 CURVE",
"925 437 OFFCURVE",
"928 466 OFFCURVE",
"942 489 CURVE"
);
}
);
width = 950;
}
);
unicode = E8E4;
},
{
glyphname = uniE8E5;
lastChange = "2019-03-27 08:26:57 +0000";
layers = (
{
layerId = "02376AAC-77FF-49DA-9399-294AF7A35492";
paths = (
{
closed = 1;
nodes = (
"14 526 OFFCURVE",
"33 528 OFFCURVE",
"26 550 CURVE",
"19 570 OFFCURVE",
"6 583 OFFCURVE",
"-6 597 CURVE",
"625 550 OFFCURVE",
"1014 4 OFFCURVE",
"1014 -1 CURVE",
"989 -1 LINE",
"962 -1 OFFCURVE",
"628 402 OFFCURVE",
"21 429 CURVE",
"21 461 OFFCURVE",
"18 491 OFFCURVE",
"2 516 CURVE"
);
}
);
width = 1020;
}
);
unicode = E8E5;
},
{
glyphname = uniF0A0;
lastChange = "2018-05-24 15:38:52 +0000";
layers = (
{
layerId = "02376AAC-77FF-49DA-9399-294AF7A35492";
paths = (
{
closed = 1;
nodes = (
"-1 233 OFFCURVE",
"-7 -68 OFFCURVE",
"7 -368 CURVE",
"7 -382 OFFCURVE",
"32 -382 OFFCURVE",
"32 -368 CURVE",
"41 -112 OFFCURVE",
"70 149 OFFCURVE",
"120 402 CURVE",
"109 402 OFFCURVE",
"104 405 OFFCURVE",
"95 405 CURVE",
"104 210 OFFCURVE",
"109 12 OFFCURVE",
"104 -184 CURVE",
"104 -193 OFFCURVE",
"113 -196 OFFCURVE",
"125 -193 CURVE",
"172 -170 OFFCURVE",
"186 -107 OFFCURVE",
"202 -63 CURVE",
"216 12 OFFCURVE",
"230 82 OFFCURVE",
"239 158 CURVE",
"265 303 OFFCURVE",
"270 454 OFFCURVE",
"258 603 CURVE",
"258 617 OFFCURVE",
"235 617 OFFCURVE",
"235 603 CURVE",
"211 321 OFFCURVE",
"207 39 OFFCURVE",
"216 -244 CURVE",
"216 -258 OFFCURVE",
"235 -261 OFFCURVE",
"239 -249 CURVE",
"298 -14 OFFCURVE",
"332 225 OFFCURVE",
"342 463 CURVE",
"342 477 OFFCURVE",
"318 477 OFFCURVE",
"318 468 CURVE",
"279 303 OFFCURVE",
"246 123 OFFCURVE",
"342 -28 CURVE",
"346 -37 OFFCURVE",
"356 -37 OFFCURVE",
"365 -28 CURVE",
"463 96 OFFCURVE",
"488 263 OFFCURVE",
"428 405 CURVE",
"425 414 OFFCURVE",
"404 419 OFFCURVE",
"404 405 CURVE",
"372 205 OFFCURVE",
"372 -2 OFFCURVE",
"404 -205 CURVE",
"404 -214 OFFCURVE",
"425 -214 OFFCURVE",
"428 -205 CURVE",
"488 -54 OFFCURVE",
"521 105 OFFCURVE",
"518 263 CURVE",
"518 277 OFFCURVE",
"498 277 OFFCURVE",
"498 268 CURVE",
"458 149 OFFCURVE",
"448 30 OFFCURVE",
"472 -89 CURVE",
"472 -98 OFFCURVE",
"491 -103 OFFCURVE",
"491 -95 CURVE",
"570 61 OFFCURVE",
"593 228 OFFCURVE",
"623 396 CURVE",
"612 396 OFFCURVE",
"604 396 OFFCURVE",
"598 396 CURVE",
"593 205 OFFCURVE",
"593 16 OFFCURVE",
"590 -174 CURVE",
"598 -174 OFFCURVE",
"604 -174 OFFCURVE",
"612 -174 CURVE",
"612 -138 OFFCURVE",
"612 -103 OFFCURVE",
"612 -72 CURVE",
"612 -54 OFFCURVE",
"590 -54 OFFCURVE",
"590 -72 CURVE",
"590 -103 OFFCURVE",
"590 -138 OFFCURVE",
"590 -174 CURVE",
"590 -188 OFFCURVE",
"612 -188 OFFCURVE",
"612 -174 CURVE",
"618 16 OFFCURVE",
"618 205 OFFCURVE",
"623 396 CURVE",
"623 410 OFFCURVE",
"598 414 OFFCURVE",
"598 402 CURVE",
"574 237 OFFCURVE",
"546 70 OFFCURVE",
"472 -81 CURVE",
"483 -86 OFFCURVE",
"488 -86 OFFCURVE",
"498 -86 CURVE",
"472 30 OFFCURVE",
"483 149 OFFCURVE",
"518 260 CURVE",
"511 263 OFFCURVE",
"502 263 OFFCURVE",
"491 263 CURVE",
"498 105 OFFCURVE",
"463 -51 OFFCURVE",
"404 -196 CURVE",
"416 -196 OFFCURVE",
"419 -196 OFFCURVE",
"428 -196 CURVE",
"395 -2 OFFCURVE",
"395 202 OFFCURVE",
"428 402 CURVE",
"419 402 OFFCURVE",
"416 402 OFFCURVE",
"404 402 CURVE",
"458 263 OFFCURVE",
"439 105 OFFCURVE",
"342 -19 CURVE",
"353 -19 OFFCURVE",
"356 -19 OFFCURVE",
"365 -19 CURVE",
"270 128 OFFCURVE",
"302 303 OFFCURVE",
"342 459 CURVE",
"332 463 OFFCURVE",
"321 463 OFFCURVE",
"318 463 CURVE",
"309 225 OFFCURVE",
"274 -10 OFFCURVE",
"216 -238 CURVE",
"221 -244 OFFCURVE",
"230 -244 OFFCURVE",
"239 -244 CURVE",
"230 39 OFFCURVE",
"235 321 OFFCURVE",
"258 603 CURVE",
"255 603 OFFCURVE",
"246 603 OFFCURVE",
"235 603 CURVE",
"246 468 OFFCURVE",
"239 326 OFFCURVE",
"221 188 CURVE",
"211 119 OFFCURVE",
"202 53 OFFCURVE",
"186 -19 CURVE",
"172 -68 OFFCURVE",
"167 -147 OFFCURVE",
"109 -174 CURVE",
"113 -174 OFFCURVE",
"120 -179 OFFCURVE",
"128 -184 CURVE",
"134 12 OFFCURVE",
"128 210 OFFCURVE",
"120 405 CURVE",
"120 414 OFFCURVE",
"100 419 OFFCURVE",
"95 410 CURVE",
"46 149 OFFCURVE",
"18 -107 OFFCURVE",
"7 -368 CURVE",
"18 -368 OFFCURVE",
"27 -368 OFFCURVE",
"32 -368 CURVE",
"18 -68 OFFCURVE",
"21 233 OFFCURVE",
"53 528 CURVE",
"56 542 OFFCURVE",
"32 542 OFFCURVE",
"27 528 CURVE"
);
},
{
closed = 1;
nodes = (
"158 402 OFFCURVE",
"249 277 OFFCURVE",
"353 158 CURVE",
"458 35 OFFCURVE",
"565 -95 OFFCURVE",
"672 -217 CURVE",
"681 -226 OFFCURVE",
"700 -214 OFFCURVE",
"691 -202 CURVE",
"584 -77 OFFCURVE",
"472 47 OFFCURVE",
"365 175 CURVE",
"270 295 OFFCURVE",
"176 414 OFFCURVE",
"109 551 CURVE",
"104 565 OFFCURVE",
"85 556 OFFCURVE",
"90 542 CURVE"
);
},
{
closed = 1;
nodes = (
"518 459 OFFCURVE",
"391 344 OFFCURVE",
"284 210 CURVE",
"176 82 OFFCURVE",
"90 -60 OFFCURVE",
"32 -210 CURVE",
"27 -221 OFFCURVE",
"53 -230 OFFCURVE",
"56 -217 CURVE",
"113 -63 OFFCURVE",
"202 79 OFFCURVE",
"309 205 CURVE",
"416 335 OFFCURVE",
"535 451 OFFCURVE",
"633 586 CURVE",
"644 600 OFFCURVE",
"618 609 OFFCURVE",
"612 595 CURVE"
);
}
);
width = 693;
}
);
unicode = F0A0;
},
{
glyphname = uniF0A6;
lastChange = "2018-05-24 15:49:04 +0000";
layers = (
{
layerId = "02376AAC-77FF-49DA-9399-294AF7A35492";
paths = (
{
closed = 1;
nodes = (
"308 -397 OFFCURVE",
"301 -400 OFFCURVE",
"294 -403 CURVE",
"289 -405 OFFCURVE",
"285 -406 OFFCURVE",
"280 -407 CURVE",
"278 -397 OFFCURVE",
"279 -387 OFFCURVE",
"274 -382 CURVE",
"269 -377 OFFCURVE",
"259 -377 OFFCURVE",
"250 -374 CURVE",
"249 -383 OFFCURVE",
"248 -389 OFFCURVE",
"248 -394 CURVE",
"238 -396 OFFCURVE",
"238 -395 OFFCURVE",
"231 -377 CURVE",
"226 -376 OFFCURVE",
"221 -376 OFFCURVE",
"213 -375 CURVE",
"214 -368 OFFCURVE",
"215 -361 OFFCURVE",
"217 -355 CURVE",
"221 -346 OFFCURVE",
"217 -338 OFFCURVE",
"207 -336 CURVE",
"207 -336 OFFCURVE",
"206 -336 OFFCURVE",
"206 -336 CURVE",
"197 -328 OFFCURVE",
"189 -323 OFFCURVE",
"177 -331 CURVE",
"176 -331 OFFCURVE",
"172 -327 OFFCURVE",
"169 -324 CURVE",
"184 -312 OFFCURVE",
"170 -304 OFFCURVE",
"164 -299 CURVE",
"157 -293 OFFCURVE",
"146 -292 OFFCURVE",
"135 -288 CURVE",
"136 -278 OFFCURVE",
"148 -266 OFFCURVE",
"135 -255 CURVE",
"156 -234 OFFCURVE",
"151 -211 OFFCURVE",
"146 -187 CURVE",
"145 -185 OFFCURVE",
"145 -184 OFFCURVE",
"145 -182 CURVE",
"145 -175 OFFCURVE",
"166 -163 OFFCURVE",
"173 -166 CURVE",
"175 -157 OFFCURVE",
"176 -148 OFFCURVE",
"178 -139 CURVE",
"158 -142 OFFCURVE",
"140 -146 OFFCURVE",
"120 -150 CURVE",
"113 -143 OFFCURVE",
"113 -139 OFFCURVE",
"123 -133 CURVE",
"127 -131 OFFCURVE",
"131 -127 OFFCURVE",
"134 -123 CURVE",
"129 -120 OFFCURVE",
"123 -115 OFFCURVE",
"117 -114 CURVE",
"109 -112 OFFCURVE",
"100 -114 OFFCURVE",
"90 -114 CURVE",
"96 -103 OFFCURVE",
"114 -99 OFFCURVE",
"126 -105 CURVE",
"139 -110 OFFCURVE",
"171 -99 OFFCURVE",
"177 -87 CURVE",
"182 -79 OFFCURVE",
"177 -69 OFFCURVE",
"169 -64 CURVE",
"159 -58 OFFCURVE",
"148 -52 OFFCURVE",
"149 -37 CURVE",
"140 -32 OFFCURVE",
"137 -24 OFFCURVE",
"141 -15 CURVE",
"149 2 OFFCURVE",
"146 10 OFFCURVE",
"129 15 CURVE",
"126 16 OFFCURVE",
"123 20 OFFCURVE",
"120 22 CURVE",
"120 23 OFFCURVE",
"120 24 OFFCURVE",
"120 26 CURVE",
"126 27 OFFCURVE",
"133 31 OFFCURVE",
"138 29 CURVE",
"144 26 OFFCURVE",
"148 23 OFFCURVE",
"151 30 CURVE",
"154 36 OFFCURVE",
"155 44 OFFCURVE",
"153 49 CURVE",
"144 65 OFFCURVE",
"125 66 OFFCURVE",
"110 74 CURVE",
"109 75 OFFCURVE",
"105 72 OFFCURVE",
"102 70 CURVE",
"104 72 OFFCURVE",
"106 75 OFFCURVE",
"108 77 CURVE",
"103 82 OFFCURVE",
"98 88 OFFCURVE",
"93 94 CURVE",
"91 91 OFFCURVE",
"89 89 OFFCURVE",
"87 87 CURVE",
"84 95 OFFCURVE",
"80 102 OFFCURVE",
"77 110 CURVE",
"74 117 OFFCURVE",
"72 123 OFFCURVE",
"70 130 CURVE",
"68 139 OFFCURVE",
"58 144 OFFCURVE",
"49 140 CURVE",
"40 135 OFFCURVE",
"31 129 OFFCURVE",
"22 125 CURVE",
"16 123 OFFCURVE",
"8 124 OFFCURVE",
"0 124 CURVE",
"9 136 OFFCURVE",
"9 136 OFFCURVE",
"52 153 CURVE",
"47 160 OFFCURVE",
"44 170 OFFCURVE",
"38 171 CURVE",
"30 173 OFFCURVE",
"21 168 OFFCURVE",
"12 165 CURVE",
"11 166 OFFCURVE",
"8 168 OFFCURVE",
"3 172 CURVE",
"10 175 OFFCURVE",
"15 176 OFFCURVE",
"19 179 CURVE",
"23 182 OFFCURVE",
"30 187 OFFCURVE",
"30 191 CURVE",
"29 195 OFFCURVE",
"23 199 OFFCURVE",
"18 203 CURVE",
"16 205 OFFCURVE",
"13 206 OFFCURVE",
"11 208 CURVE",
"13 209 OFFCURVE",
"15 212 OFFCURVE",
"17 213 CURVE",
"22 217 OFFCURVE",
"22 225 OFFCURVE",
"16 228 CURVE",
"14 229 OFFCURVE",
"12 230 OFFCURVE",
"10 231 CURVE",
"7 234 OFFCURVE",
"4 237 OFFCURVE",
"1 240 CURVE",
"5 242 OFFCURVE",
"9 243 OFFCURVE",
"15 246 CURVE",
"25 258 OFFCURVE",
"13 268 OFFCURVE",
"7 278 CURVE",
"-1 291 OFFCURVE",
"-1 292 OFFCURVE",
"12 298 CURVE",
"20 302 OFFCURVE",
"20 310 OFFCURVE",
"23 318 CURVE",
"27 331 OFFCURVE",
"19 336 OFFCURVE",
"12 343 CURVE",
"11 345 OFFCURVE",
"11 348 OFFCURVE",
"11 350 CURVE",
"12 351 OFFCURVE",
"13 352 OFFCURVE",
"14 351 CURVE",
"34 346 OFFCURVE",
"38 362 OFFCURVE",
"45 375 CURVE",
"48 382 OFFCURVE",
"48 389 OFFCURVE",
"50 396 CURVE",
"51 399 OFFCURVE",
"53 402 OFFCURVE",
"55 404 CURVE",
"63 413 OFFCURVE",
"75 421 OFFCURVE",
"65 436 CURVE",
"64 438 OFFCURVE",
"66 443 OFFCURVE",
"66 446 CURVE",
"67 446 OFFCURVE",
"68 447 OFFCURVE",
"70 448 CURVE",
"74 441 OFFCURVE",
"78 434 OFFCURVE",
"81 428 CURVE",
"103 450 OFFCURVE",
"125 472 OFFCURVE",
"148 495 CURVE",
"153 491 OFFCURVE",
"159 487 OFFCURVE",
"165 483 CURVE",
"172 479 OFFCURVE",
"183 482 OFFCURVE",
"183 490 CURVE",
"183 497 OFFCURVE",
"180 505 OFFCURVE",
"178 513 CURVE",
"178 517 OFFCURVE",
"177 522 OFFCURVE",
"177 526 CURVE",
"178 528 OFFCURVE",
"183 530 OFFCURVE",
"185 530 CURVE",
"187 530 OFFCURVE",
"190 525 OFFCURVE",
"189 523 CURVE",
"189 510 OFFCURVE",
"202 506 OFFCURVE",
"207 497 CURVE",
"208 496 OFFCURVE",
"220 499 OFFCURVE",
"223 503 CURVE",
"230 511 OFFCURVE",
"235 513 OFFCURVE",
"243 505 CURVE",
"247 501 OFFCURVE",
"256 500 OFFCURVE",
"261 502 CURVE",
"272 506 OFFCURVE",
"282 512 OFFCURVE",
"293 517 CURVE",
"293 525 OFFCURVE",
"293 531 OFFCURVE",
"293 540 CURVE",
"297 539 OFFCURVE",
"302 538 OFFCURVE",
"302 537 CURVE",
"302 532 OFFCURVE",
"303 525 OFFCURVE",
"300 520 CURVE",
"294 506 OFFCURVE",
"295 500 OFFCURVE",
"308 494 CURVE",
"312 492 OFFCURVE",
"317 494 OFFCURVE",
"323 494 CURVE",
"316 501 OFFCURVE",
"312 505 OFFCURVE",
"309 510 CURVE",
"308 511 OFFCURVE",
"311 516 OFFCURVE",
"314 519 CURVE",
"314 520 OFFCURVE",
"317 521 OFFCURVE",
"318 521 CURVE",
"325 517 OFFCURVE",
"331 510 OFFCURVE",
"340 515 CURVE",
"341 510 OFFCURVE",
"342 505 OFFCURVE",
"341 501 CURVE",
"341 498 OFFCURVE",
"337 496 OFFCURVE",
"335 493 CURVE",
"343 477 OFFCURVE",
"346 476 OFFCURVE",
"369 477 CURVE",
"375 484 OFFCURVE",
"375 500 OFFCURVE",
"391 495 CURVE",
"387 484 OFFCURVE",
"384 474 OFFCURVE",
"380 461 CURVE",
"392 462 OFFCURVE",
"399 461 OFFCURVE",
"406 463 CURVE",
"414 465 OFFCURVE",
"416 462 OFFCURVE",
"417 456 CURVE",
"417 452 OFFCURVE",
"417 449 OFFCURVE",
"417 446 CURVE",
"417 428 OFFCURVE",
"425 420 OFFCURVE",
"442 416 CURVE",
"454 413 OFFCURVE",
"465 406 OFFCURVE",
"476 401 CURVE",
"475 398 OFFCURVE",
"475 397 OFFCURVE",
"475 397 CURVE",
"458 381 OFFCURVE",
"458 378 OFFCURVE",
"474 362 CURVE",
"480 356 OFFCURVE",
"483 350 OFFCURVE",
"483 340 CURVE",
"484 334 OFFCURVE",
"494 327 OFFCURVE",
"501 323 CURVE",
"508 319 OFFCURVE",
"507 317 OFFCURVE",
"503 311 CURVE",
"500 307 OFFCURVE",
"498 302 OFFCURVE",
"495 296 CURVE",
"504 292 OFFCURVE",
"514 291 OFFCURVE",
"511 278 CURVE",
"505 278 OFFCURVE",
"499 278 OFFCURVE",
"490 277 CURVE",
"497 265 OFFCURVE",
"506 253 OFFCURVE",
"493 239 CURVE",
"479 240 OFFCURVE",
"480 224 OFFCURVE",
"479 216 CURVE",
"478 208 OFFCURVE",
"485 196 OFFCURVE",
"499 198 CURVE",
"498 193 OFFCURVE",
"497 188 OFFCURVE",
"495 182 CURVE",
"489 184 OFFCURVE",
"484 185 OFFCURVE",
"476 188 CURVE",
"475 183 OFFCURVE",
"474 178 OFFCURVE",
"475 173 CURVE",
"476 168 OFFCURVE",
"480 163 OFFCURVE",
"483 157 CURVE",
"475 153 OFFCURVE",
"469 150 OFFCURVE",
"462 147 CURVE",
"464 138 OFFCURVE",
"466 130 OFFCURVE",
"468 119 CURVE",
"480 128 OFFCURVE",
"491 137 OFFCURVE",
"503 144 CURVE",
"511 149 OFFCURVE",
"521 153 OFFCURVE",
"531 154 CURVE",
"542 157 OFFCURVE",
"558 171 OFFCURVE",
"561 183 CURVE",
"564 191 OFFCURVE",
"571 197 OFFCURVE",
"575 205 CURVE",
"581 216 OFFCURVE",
"577 232 OFFCURVE",
"570 241 CURVE",
"561 252 OFFCURVE",
"554 263 OFFCURVE",
"546 274 CURVE",
"536 287 OFFCURVE",
"544 296 OFFCURVE",
"551 305 CURVE",
"553 307 OFFCURVE",
"555 309 OFFCURVE",
"558 312 CURVE",
"560 311 OFFCURVE",
"562 308 OFFCURVE",
"564 308 CURVE",
"578 309 OFFCURVE",
"584 304 OFFCURVE",
"588 291 CURVE",
"591 280 OFFCURVE",
"592 271 OFFCURVE",
"587 260 CURVE",
"578 239 OFFCURVE",
"581 216 OFFCURVE",
"595 207 CURVE",
"604 201 OFFCURVE",
"614 196 OFFCURVE",
"624 190 CURVE",
"626 189 OFFCURVE",
"629 190 OFFCURVE",
"631 191 CURVE",
"636 192 OFFCURVE",
"642 194 OFFCURVE",
"648 193 CURVE",
"666 190 OFFCURVE",
"678 200 OFFCURVE",
"690 212 CURVE",
"691 214 OFFCURVE",
"693 216 OFFCURVE",
"694 218 CURVE",
"699 241 OFFCURVE",
"715 239 OFFCURVE",
"730 229 CURVE",
"739 222 OFFCURVE",
"745 222 OFFCURVE",
"753 230 CURVE",
"768 244 OFFCURVE",
"785 256 OFFCURVE",
"801 268 CURVE",
"802 269 OFFCURVE",
"805 268 OFFCURVE",
"808 268 CURVE",
"808 267 OFFCURVE",
"809 266 OFFCURVE",
"810 265 CURVE",
"793 250 OFFCURVE",
"777 236 OFFCURVE",
"761 222 CURVE",
"750 213 OFFCURVE",
"739 203 OFFCURVE",
"728 195 CURVE",
"718 187 OFFCURVE",
"706 180 OFFCURVE",
"696 172 CURVE",
"686 163 OFFCURVE",
"678 153 OFFCURVE",
"669 143 CURVE",
"661 134 OFFCURVE",
"653 125 OFFCURVE",
"644 115 CURVE",
"634 103 OFFCURVE",
"623 91 OFFCURVE",
"612 79 CURVE",
"611 77 OFFCURVE",
"610 74 OFFCURVE",
"610 71 CURVE",
"609 69 OFFCURVE",
"610 65 OFFCURVE",
"609 64 CURVE",
"591 51 OFFCURVE",
"611 47 OFFCURVE",
"613 37 CURVE",
"605 22 OFFCURVE",
"610 0 OFFCURVE",
"627 -8 CURVE",
"630 -9 OFFCURVE",
"635 -6 OFFCURVE",
"639 -4 CURVE",
"640 -4 OFFCURVE",
"641 0 OFFCURVE",
"642 0 CURVE",
"660 -1 OFFCURVE",
"661 18 OFFCURVE",
"671 26 CURVE",
"679 32 OFFCURVE",
"681 45 OFFCURVE",
"686 56 CURVE",
"689 51 OFFCURVE",
"692 47 OFFCURVE",
"694 44 CURVE",
"697 36 OFFCURVE",
"694 28 OFFCURVE",
"686 25 CURVE",
"666 18 OFFCURVE",
"660 -8 OFFCURVE",
"666 -24 CURVE",
"668 -28 OFFCURVE",
"663 -37 OFFCURVE",
"661 -37 CURVE",
"650 -36 OFFCURVE",
"649 -43 OFFCURVE",
"650 -50 CURVE",
"653 -61 OFFCURVE",
"664 -68 OFFCURVE",
"672 -62 CURVE",
"681 -56 OFFCURVE",
"684 -60 OFFCURVE",
"690 -66 CURVE",
"684 -71 OFFCURVE",
"679 -76 OFFCURVE",
"684 -85 CURVE",
"685 -86 OFFCURVE",
"682 -92 OFFCURVE",
"679 -94 CURVE",
"667 -103 OFFCURVE",
"666 -106 OFFCURVE",
"677 -118 CURVE",
"690 -131 OFFCURVE",
"693 -146 OFFCURVE",
"687 -164 CURVE",
"685 -171 OFFCURVE",
"685 -180 OFFCURVE",
"685 -188 CURVE",
"683 -219 OFFCURVE",
"681 -250 OFFCURVE",
"680 -280 CURVE",
"679 -284 OFFCURVE",
"679 -287 OFFCURVE",
"679 -291 CURVE",
"668 -291 OFFCURVE",
"657 -292 OFFCURVE",
"654 -305 CURVE",
"653 -305 OFFCURVE",
"645 -314 OFFCURVE",
"637 -308 CURVE",
"631 -303 OFFCURVE",
"619 -310 OFFCURVE",
"615 -320 CURVE",
"613 -325 OFFCURVE",
"606 -331 OFFCURVE",
"613 -338 CURVE",
"614 -339 OFFCURVE",
"610 -346 OFFCURVE",
"607 -350 CURVE",
"606 -350 OFFCURVE",
"601 -349 OFFCURVE",
"599 -347 CURVE",
"587 -342 OFFCURVE",
"569 -352 OFFCURVE",
"566 -365 CURVE",
"565 -369 OFFCURVE",
"562 -372 OFFCURVE",
"562 -373 CURVE",
"549 -373 OFFCURVE",
"536 -369 OFFCURVE",
"527 -374 CURVE",
"519 -378 OFFCURVE",
"516 -391 OFFCURVE",
"511 -399 CURVE",
"504 -394 OFFCURVE",
"495 -385 OFFCURVE",
"491 -387 CURVE",
"483 -392 OFFCURVE",
"470 -389 OFFCURVE",
"465 -403 CURVE",
"462 -411 OFFCURVE",
"447 -415 OFFCURVE",
"437 -421 CURVE",
"435 -422 OFFCURVE",
"432 -424 OFFCURVE",
"432 -426 CURVE",
"433 -436 OFFCURVE",
"425 -439 OFFCURVE",
"418 -442 CURVE",
"406 -447 OFFCURVE",
"395 -442 OFFCURVE",
"392 -431 CURVE",
"389 -424 OFFCURVE",
"386 -412 OFFCURVE",
"382 -412 CURVE",
"370 -410 OFFCURVE",
"357 -411 OFFCURVE",
"344 -414 CURVE",
"340 -415 OFFCURVE",
"339 -425 OFFCURVE",
"335 -434 CURVE",
"344 -434 OFFCURVE",
"350 -434 OFFCURVE",
"357 -434 CURVE",
"357 -431 OFFCURVE",
"357 -427 OFFCURVE",
"358 -425 CURVE",
"360 -421 OFFCURVE",
"363 -416 OFFCURVE",
"367 -415 CURVE",
"369 -415 OFFCURVE",
"375 -418 OFFCURVE",
"376 -421 CURVE",
"377 -424 OFFCURVE",
"375 -428 OFFCURVE",
"373 -432 CURVE",
"370 -439 OFFCURVE",
"366 -445 OFFCURVE",
"364 -453 CURVE",
"360 -464 OFFCURVE",
"352 -469 OFFCURVE",
"342 -472 CURVE",
"340 -472 OFFCURVE",
"334 -470 OFFCURVE",
"334 -469 CURVE",
"333 -455 OFFCURVE",
"317 -446 OFFCURVE",
"322 -430 CURVE",
"324 -426 OFFCURVE",
"326 -423 OFFCURVE",
"326 -419 CURVE",
"326 -415 OFFCURVE",
"324 -410 OFFCURVE",
"322 -406 CURVE",
"320 -403 OFFCURVE",
"318 -400 OFFCURVE",
"314 -394 CURVE"
);
},
{
closed = 1;
nodes = (
"891 124 OFFCURVE",
"885 125 OFFCURVE",
"880 127 CURVE",
"869 132 OFFCURVE",
"869 144 OFFCURVE",
"879 151 CURVE",
"889 158 OFFCURVE",
"899 167 OFFCURVE",
"914 164 CURVE",
"923 162 OFFCURVE",
"927 159 OFFCURVE",
"928 150 CURVE",
"928 136 OFFCURVE",
"914 124 OFFCURVE",
"897 122 CURVE"
);
},
{
closed = 1;
nodes = (
"936 120 OFFCURVE",
"941 121 OFFCURVE",
"944 119 CURVE",
"949 117 OFFCURVE",
"955 113 OFFCURVE",
"957 108 CURVE",
"959 102 OFFCURVE",
"956 97 OFFCURVE",
"948 94 CURVE",
"937 91 OFFCURVE",
"927 82 OFFCURVE",
"914 85 CURVE",
"903 86 OFFCURVE",
"892 102 OFFCURVE",
"899 108 CURVE",
"904 114 OFFCURVE",
"912 117 OFFCURVE",
"920 119 CURVE",
"923 121 OFFCURVE",
"928 120 OFFCURVE",
"932 120 CURVE",
"932 120 OFFCURVE",
"932 120 OFFCURVE",
"932 120 CURVE"
);
},
{
closed = 1;
nodes = (
"784 148 OFFCURVE",
"762 119 OFFCURVE",
"755 119 CURVE",
"750 119 OFFCURVE",
"743 122 OFFCURVE",
"741 126 CURVE",
"738 129 OFFCURVE",
"738 138 OFFCURVE",
"741 141 CURVE",
"750 151 OFFCURVE",
"760 160 OFFCURVE",
"771 168 CURVE",
"776 172 OFFCURVE",
"784 163 OFFCURVE",
"784 156 CURVE"
);
},
{
closed = 1;
nodes = (
"802 -38 OFFCURVE",
"808 -25 OFFCURVE",
"812 -12 CURVE",
"815 -2 OFFCURVE",
"822 -3 OFFCURVE",
"827 -6 CURVE",
"831 -8 OFFCURVE",
"833 -16 OFFCURVE",
"832 -21 CURVE",
"831 -28 OFFCURVE",
"826 -35 OFFCURVE",
"823 -42 CURVE",
"819 -53 OFFCURVE",
"810 -55 OFFCURVE",
"797 -54 CURVE"
);
},
{
closed = 1;
nodes = (
"862 310 OFFCURVE",
"903 347 OFFCURVE",
"923 346 CURVE",
"903 328 OFFCURVE",
"884 310 OFFCURVE",
"864 290 CURVE"
);
},
{
closed = 1;
nodes = (
"572 -399 OFFCURVE",
"580 -388 OFFCURVE",
"590 -373 CURVE",
"592 -382 OFFCURVE",
"597 -389 OFFCURVE",
"595 -393 CURVE",
"590 -401 OFFCURVE",
"583 -409 OFFCURVE",
"575 -415 CURVE",
"573 -417 OFFCURVE",
"566 -414 OFFCURVE",
"563 -413 CURVE"
);
},
{
closed = 1;
nodes = (
"826 330 OFFCURVE",
"827 342 OFFCURVE",
"842 347 CURVE",
"845 348 OFFCURVE",
"852 343 OFFCURVE",
"852 342 CURVE",
"849 333 OFFCURVE",
"846 325 OFFCURVE",
"842 315 CURVE"
);
},
{
closed = 1;
nodes = (
"104 -271 OFFCURVE",
"98 -273 OFFCURVE",
"93 -271 CURVE",
"88 -269 OFFCURVE",
"84 -265 OFFCURVE",
"80 -261 CURVE",
"84 -258 OFFCURVE",
"88 -253 OFFCURVE",
"93 -252 CURVE",
"101 -250 OFFCURVE",
"110 -261 OFFCURVE",
"109 -271 CURVE"
);
},
{
closed = 1;
nodes = (
"681 80 OFFCURVE",
"673 80 OFFCURVE",
"666 80 CURVE",
"664 94 OFFCURVE",
"669 97 OFFCURVE",
"689 94 CURVE",
"689 90 OFFCURVE",
"689 86 OFFCURVE",
"690 80 CURVE"
);
},
{
closed = 1;
nodes = (
"96 -171 OFFCURVE",
"81 -183 OFFCURVE",
"64 -181 CURVE",
"75 -172 OFFCURVE",
"83 -164 OFFCURVE",
"94 -155 CURVE"
);
},
{
closed = 1;
nodes = (
"656 72 OFFCURVE",
"660 70 OFFCURVE",
"664 68 CURVE",
"664 64 OFFCURVE",
"664 60 OFFCURVE",
"664 56 CURVE",
"644 53 OFFCURVE",
"644 54 OFFCURVE",
"651 74 CURVE"
);
},
{
closed = 1;
nodes = (
"145 568 OFFCURVE",
"149 574 OFFCURVE",
"157 566 CURVE",
"163 560 OFFCURVE",
"160 556 OFFCURVE",
"155 552 CURVE",
"150 548 OFFCURVE",
"150 548 OFFCURVE",
"140 563 CURVE"
);
},
{
closed = 1;
nodes = (
"911 465 OFFCURVE",
"922 481 OFFCURVE",
"932 480 CURVE",
"927 470 OFFCURVE",
"922 461 OFFCURVE",
"915 449 CURVE"
);
},
{
closed = 1;
nodes = (
"775 396 OFFCURVE",
"780 394 OFFCURVE",
"784 391 CURVE",
"780 388 OFFCURVE",
"777 385 OFFCURVE",
"773 381 CURVE",
"771 385 OFFCURVE",
"769 389 OFFCURVE",
"766 393 CURVE",
"768 395 OFFCURVE",
"769 397 OFFCURVE",
"771 398 CURVE"
);
},
{
closed = 1;
nodes = (
"987 383 OFFCURVE",
"980 377 OFFCURVE",
"973 370 CURVE",
"971 383 OFFCURVE",
"980 392 OFFCURVE",
"994 389 CURVE"
);
},
{
closed = 1;
nodes = (
"526 220 OFFCURVE",
"526 226 OFFCURVE",
"526 232 CURVE",
"527 233 OFFCURVE",
"528 233 OFFCURVE",
"529 234 CURVE",
"532 231 OFFCURVE",
"537 228 OFFCURVE",
"537 226 CURVE",
"536 221 OFFCURVE",
"540 210 OFFCURVE",
"526 214 CURVE"
);
},
{
closed = 1;
nodes = (
"709 -54 OFFCURVE",
"707 -57 OFFCURVE",
"705 -59 CURVE",
"703 -57 OFFCURVE",
"700 -54 OFFCURVE",
"700 -52 CURVE",
"700 -49 OFFCURVE",
"702 -46 OFFCURVE",
"704 -44 CURVE",
"706 -46 OFFCURVE",
"708 -48 OFFCURVE",
"712 -51 CURVE"
);
}
);
width = 994;
}
);
unicode = F0A6;
},
{
glyphname = uniF0A7;
lastChange = "2018-05-24 15:48:23 +0000";
layers = (
{
layerId = "02376AAC-77FF-49DA-9399-294AF7A35492";
paths = (
{
closed = 1;
nodes = (
"166 -83 OFFCURVE",
"196 -70 OFFCURVE",
"223 -63 CURVE",
"243 -58 OFFCURVE",
"263 -55 OFFCURVE",
"283 -53 CURVE",
"312 -53 OFFCURVE",
"335 -68 OFFCURVE",
"347 -95 CURVE",
"354 -112 OFFCURVE",
"359 -130 OFFCURVE",
"364 -147 CURVE",
"367 -152 OFFCURVE",
"367 -154 OFFCURVE",
"369 -162 CURVE",
"374 -154 OFFCURVE",
"382 -149 OFFCURVE",
"384 -144 CURVE",
"389 -130 OFFCURVE",
"394 -112 OFFCURVE",
"402 -97 CURVE",
"404 -90 OFFCURVE",
"411 -83 OFFCURVE",
"416 -75 CURVE",
"424 -85 OFFCURVE",
"431 -92 OFFCURVE",
"436 -100 CURVE",
"461 -132 OFFCURVE",
"488 -137 OFFCURVE",
"520 -115 CURVE",
"535 -105 OFFCURVE",
"545 -95 OFFCURVE",
"558 -85 CURVE",
"600 -53 OFFCURVE",
"644 -33 OFFCURVE",
"699 -60 CURVE",
"701 -53 OFFCURVE",
"704 -45 OFFCURVE",
"704 -36 CURVE",
"714 -6 OFFCURVE",
"731 19 OFFCURVE",
"753 41 CURVE",
"766 56 OFFCURVE",
"778 69 OFFCURVE",
"790 83 CURVE",
"793 88 OFFCURVE",
"798 93 OFFCURVE",
"800 101 CURVE",
"813 126 OFFCURVE",
"810 128 OFFCURVE",
"790 148 CURVE",
"768 173 OFFCURVE",
"743 195 OFFCURVE",
"721 222 CURVE",
"691 254 OFFCURVE",
"684 291 OFFCURVE",
"691 334 CURVE",
"694 351 OFFCURVE",
"696 366 OFFCURVE",
"701 381 CURVE",
"706 408 OFFCURVE",
"719 433 OFFCURVE",
"738 450 CURVE",
"743 455 OFFCURVE",
"746 460 OFFCURVE",
"748 465 CURVE",
"756 480 OFFCURVE",
"751 487 OFFCURVE",
"736 490 CURVE",
"726 490 OFFCURVE",
"714 490 OFFCURVE",
"704 490 CURVE",
"672 490 OFFCURVE",
"637 490 OFFCURVE",
"605 492 CURVE",
"577 492 OFFCURVE",
"555 502 OFFCURVE",
"540 527 CURVE",
"508 507 OFFCURVE",
"473 500 OFFCURVE",
"439 504 CURVE",
"409 509 OFFCURVE",
"382 517 OFFCURVE",
"352 522 CURVE",
"317 529 OFFCURVE",
"285 537 OFFCURVE",
"250 529 CURVE",
"236 527 OFFCURVE",
"231 519 OFFCURVE",
"238 507 CURVE",
"243 497 OFFCURVE",
"248 487 OFFCURVE",
"253 477 CURVE",
"265 452 OFFCURVE",
"260 438 OFFCURVE",
"233 433 CURVE",
"203 428 OFFCURVE",
"171 428 OFFCURVE",
"139 428 CURVE",
"119 425 OFFCURVE",
"97 428 OFFCURVE",
"80 430 CURVE",
"92 420 OFFCURVE",
"109 410 OFFCURVE",
"122 398 CURVE",
"146 371 OFFCURVE",
"144 336 OFFCURVE",
"134 304 CURVE",
"122 257 OFFCURVE",
"94 215 OFFCURVE",
"65 178 CURVE",
"45 150 OFFCURVE",
"20 126 OFFCURVE",
"0 101 CURVE",
"15 106 OFFCURVE",
"32 113 OFFCURVE",
"52 118 CURVE",
"85 126 OFFCURVE",
"117 126 OFFCURVE",
"146 111 CURVE",
"193 83 OFFCURVE",
"213 24 OFFCURVE",
"186 -28 CURVE",
"176 -53 OFFCURVE",
"159 -73 OFFCURVE",
"134 -92 CURVE"
);
}
);
width = 808;
}
);
unicode = F0A7;
},
{
glyphname = uniF0A2;
lastChange = "2018-06-06 20:06:11 +0000";
layers = (
{
layerId = "02376AAC-77FF-49DA-9399-294AF7A35492";
paths = (
{
closed = 1;
nodes = (
"377 654 OFFCURVE",
"721 772 OFFCURVE",
"722 772 CURVE",
"723 772 OFFCURVE",
"729 885 OFFCURVE",
"729 885 CURVE",
"729 889 OFFCURVE",
"395 762 OFFCURVE",
"370 752 CURVE",
"369 752 LINE",
"363 752 OFFCURVE",
"293 709 OFFCURVE",
"293 700 CURVE",
"293 679 OFFCURVE",
"288 139 OFFCURVE",
"287 139 CURVE",
"151 139 OFFCURVE",
"0 32 OFFCURVE",
"0 -68 CURVE",
"0 -133 OFFCURVE",
"28 -154 OFFCURVE",
"122 -154 CURVE",
"251 -154 OFFCURVE",
"364 -15 OFFCURVE",
"364 89 CURVE",
"374 660 LINE"
);
}
);
width = 729;
}
);
unicode = F0A2;
},
{
glyphname = uniF0A8;
lastChange = "2018-06-06 20:06:44 +0000";
layers = (
{
layerId = "02376AAC-77FF-49DA-9399-294AF7A35492";
paths = (
{
closed = 1;
nodes = (
"553 -650 LINE",
"553 -550 LINE",
"336 -605 LINE",
"336 -127 LINE",
"336 -31 OFFCURVE",
"232 98 OFFCURVE",
"112 98 CURVE",
"26 98 OFFCURVE",
"0 80 OFFCURVE",
"0 19 CURVE",
"0 -74 OFFCURVE",
"139 -173 OFFCURVE",
"265 -173 CURVE",
"266 -672 LINE",
"265 -708 LINE"
);
}
);
width = 553;
}
);
unicode = F0A8;
},
{
glyphname = uniE1F3;
lastChange = "2019-03-27 07:56:07 +0000";
layers = (
{
layerId = "02376AAC-77FF-49DA-9399-294AF7A35492";
paths = (
{
closed = 1;
nodes = (
"220 670 OFFCURVE",
"13 600 OFFCURVE",
"0 595 CURVE",
"0 515 LINE",
"335 606 LINE",
"345 438 LINE",
"344 277 OFFCURVE",
"341 128 OFFCURVE",
"340 128 CURVE",
"209 128 OFFCURVE",
"63 23 OFFCURVE",
"63 -73 CURVE",
"63 -137 OFFCURVE",
"90 -156 OFFCURVE",
"182 -156 CURVE",
"304 -156 OFFCURVE",
"414 -21 OFFCURVE",
"414 79 CURVE",
"425 628 LINE",
"417 734 LINE"
);
}
);
width = 425;
}
);
unicode = E1F3;
},
{
glyphname = uniF0A9;
lastChange = "2018-06-26 09:53:45 +0000";
layers = (
{
layerId = "02376AAC-77FF-49DA-9399-294AF7A35492";
paths = (
{
closed = 1;
nodes = (
"341 -124 LINE",
"341 -33 OFFCURVE",
"243 89 OFFCURVE",
"130 89 CURVE",
"48 89 OFFCURVE",
"23 72 OFFCURVE",
"23 14 CURVE",
"23 -73 OFFCURVE",
"155 -168 OFFCURVE",
"275 -168 CURVE",
"276 -641 LINE",
"171 -666 OFFCURVE",
"-2 -710 OFFCURVE",
"0 -710 CURVE",
"1 -710 OFFCURVE",
"3 -808 OFFCURVE",
"3 -810 CURVE",
"3 -813 OFFCURVE",
"369 -714 OFFCURVE",
"347 -704 CURVE",
"346 -704 LINE",
"341 -704 OFFCURVE",
"356 -650 OFFCURVE",
"353 -628 CURVE"
);
},
{
closed = 1;
nodes = (
"278 -640 OFFCURVE",
"273 -641 OFFCURVE",
"276 -641 CURVE"
);
}
);
width = 353;
}
);
unicode = F0A9;
},
{
glyphname = uniF0B0;
lastChange = "2018-06-06 20:11:16 +0000";
layers = (
{
layerId = "02376AAC-77FF-49DA-9399-294AF7A35492";
paths = (
{
closed = 1;
nodes = (
"403 575 OFFCURVE",
"652 692 OFFCURVE",
"712 692 CURVE",
"714 692 OFFCURVE",
"717 793 OFFCURVE",
"717 794 CURVE",
"717 798 OFFCURVE",
"21 567 OFFCURVE",
"0 560 CURVE",
"0 484 LINE",
"313 570 LINE",
"315 494 LINE",
"315 494 LINE",
"322 412 LINE",
"322 412 LINE",
"321 261 OFFCURVE",
"320 120 OFFCURVE",
"319 120 CURVE",
"196 120 OFFCURVE",
"59 22 OFFCURVE",
"59 -68 CURVE",
"59 -128 OFFCURVE",
"83 -146 OFFCURVE",
"169 -146 CURVE",
"285 -146 OFFCURVE",
"388 -20 OFFCURVE",
"388 74 CURVE",
"394 426 LINE",
"398 591 LINE"
);
}
);
width = 717;
}
);
unicode = F0B0;
},
{
glyphname = uniF0B1;
lastChange = "2018-06-06 20:10:50 +0000";
layers = (
{
layerId = "02376AAC-77FF-49DA-9399-294AF7A35492";
paths = (
{
closed = 1;
nodes = (
"430 -603 OFFCURVE",
"667 -541 OFFCURVE",
"731 -541 CURVE",
"733 -541 OFFCURVE",
"736 -648 OFFCURVE",
"736 -651 CURVE",
"736 -653 OFFCURVE",
"21 -862 OFFCURVE",
"0 -853 CURVE",
"0 -773 LINE",
"332 -637 LINE",
"333 -558 LINE",
"333 -558 LINE",
"341 -470 LINE",
"341 -470 LINE",
"340 -310 OFFCURVE",
"339 -161 OFFCURVE",
"337 -161 CURVE",
"208 -161 OFFCURVE",
"63 -58 OFFCURVE",
"63 37 CURVE",
"63 101 OFFCURVE",
"89 120 OFFCURVE",
"180 120 CURVE",
"302 120 OFFCURVE",
"411 -14 OFFCURVE",
"411 -113 CURVE",
"417 -485 LINE",
"426 -620 LINE"
);
}
);
width = 736;
}
);
unicode = F0B1;
},
{
glyphname = uniF0A4;
lastChange = "2018-06-06 20:05:24 +0000";
layers = (
{
layerId = "02376AAC-77FF-49DA-9399-294AF7A35492";
paths = (
{
closed = 1;
nodes = (
"385 480 OFFCURVE",
"732 599 OFFCURVE",
"734 599 CURVE",
"734 599 OFFCURVE",
"738 711 OFFCURVE",
"738 712 CURVE",
"738 716 OFFCURVE",
"402 589 OFFCURVE",
"379 579 CURVE",
"375 578 LINE",
"377 669 LINE",
"382 651 OFFCURVE",
"660 782 OFFCURVE",
"727 782 CURVE",
"728 782 OFFCURVE",
"733 894 OFFCURVE",
"733 897 CURVE",
"733 899 OFFCURVE",
"396 771 OFFCURVE",
"373 763 CURVE",
"371 762 LINE",
"366 762 OFFCURVE",
"296 718 OFFCURVE",
"296 711 CURVE",
"296 688 OFFCURVE",
"291 146 OFFCURVE",
"289 146 CURVE",
"152 146 OFFCURVE",
"0 37 OFFCURVE",
"0 -63 CURVE",
"0 -130 OFFCURVE",
"28 -150 OFFCURVE",
"123 -150 CURVE",
"252 -150 OFFCURVE",
"366 -10 OFFCURVE",
"366 95 CURVE",
"374 486 LINE",
"383 486 LINE"
);
}
);
width = 738;
}
);
unicode = F0A4;
},
{
glyphname = uniF0B3;
lastChange = "2018-06-26 09:54:33 +0000";
layers = (
{
layerId = "02376AAC-77FF-49DA-9399-294AF7A35492";
paths = (
{
closed = 1;
nodes = (
"364 -499 OFFCURVE",
"691 -612 OFFCURVE",
"693 -612 CURVE",
"694 -612 OFFCURVE",
"698 -717 OFFCURVE",
"698 -718 CURVE",
"698 -723 OFFCURVE",
"380 -602 OFFCURVE",
"358 -593 CURVE",
"353 -592 LINE",
"356 -678 LINE",
"362 -662 OFFCURVE",
"625 -785 OFFCURVE",
"686 -785 CURVE",
"688 -785 OFFCURVE",
"692 -890 OFFCURVE",
"692 -893 CURVE",
"692 -896 OFFCURVE",
"374 -775 OFFCURVE",
"353 -767 CURVE",
"351 -766 LINE",
"345 -766 OFFCURVE",
"279 -724 OFFCURVE",
"279 -717 CURVE",
"279 -697 OFFCURVE",
"275 -183 OFFCURVE",
"272 -183 CURVE",
"143 -183 OFFCURVE",
"0 -81 OFFCURVE",
"0 15 CURVE",
"0 77 OFFCURVE",
"26 96 OFFCURVE",
"117 96 CURVE",
"238 96 OFFCURVE",
"346 -36 OFFCURVE",
"346 -136 CURVE",
"353 -505 LINE",
"363 -505 LINE"
);
}
);
width = 698;
}
);
unicode = F0B3;
},
{
glyphname = uniE1F5;
lastChange = "2019-03-27 07:55:52 +0000";
layers = (
{
layerId = "02376AAC-77FF-49DA-9399-294AF7A35492";
paths = (
{
closed = 1;
nodes = (
"321 666 OFFCURVE",
"326 665 OFFCURVE",
"324 665 CURVE"
);
},
{
closed = 1;
nodes = (
"324 584 LINE",
"323 594 OFFCURVE",
"5 682 OFFCURVE",
"5 678 CURVE",
"5 676 OFFCURVE",
"1 568 OFFCURVE",
"0 568 CURVE",
"-1 568 OFFCURVE",
"194 517 OFFCURVE",
"309 489 CURVE",
"324 489 LINE",
"323 136 LINE",
"189 136 OFFCURVE",
"41 30 OFFCURVE",
"41 -67 CURVE",
"41 -132 OFFCURVE",
"69 -153 OFFCURVE",
"161 -153 CURVE",
"287 -153 OFFCURVE",
"398 -14 OFFCURVE",
"398 87 CURVE",
"411 652 LINE",
"415 674 OFFCURVE",
"398 737 OFFCURVE",
"403 737 CURVE",
"404 738 LINE",
"428 746 OFFCURVE",
"19 858 OFFCURVE",
"19 854 CURVE",
"19 853 OFFCURVE",
"15 744 OFFCURVE",
"14 744 CURVE",
"13 744 OFFCURVE",
"208 693 OFFCURVE",
"324 665 CURVE",
"324 584 LINE"
);
}
);
width = 412;
}
);
unicode = E1F5;
},
{
glyphname = uniF0B4;
lastChange = "2018-06-06 20:10:17 +0000";
layers = (
{
layerId = "02376AAC-77FF-49DA-9399-294AF7A35492";
paths = (
{
closed = 1;
nodes = (
"193 -657 OFFCURVE",
"12 -704 OFFCURVE",
"13 -704 CURVE",
"14 -704 OFFCURVE",
"18 -806 OFFCURVE",
"18 -807 CURVE",
"18 -810 OFFCURVE",
"398 -706 OFFCURVE",
"375 -698 CURVE",
"374 -697 LINE",
"370 -697 OFFCURVE",
"385 -639 OFFCURVE",
"382 -618 CURVE",
"370 -92 LINE",
"370 2 OFFCURVE",
"267 130 OFFCURVE",
"149 130 CURVE",
"63 130 OFFCURVE",
"37 110 OFFCURVE",
"37 51 CURVE",
"37 -39 OFFCURVE",
"175 -139 OFFCURVE",
"300 -139 CURVE",
"301 -466 LINE",
"287 -466 LINE",
"180 -493 OFFCURVE",
"-1 -540 OFFCURVE",
"0 -540 CURVE",
"1 -540 OFFCURVE",
"4 -641 OFFCURVE",
"4 -642 CURVE",
"4 -647 OFFCURVE",
"300 -565 OFFCURVE",
"301 -555 CURVE",
"301 -555 LINE",
"301 -631 LINE"
);
},
{
closed = 1;
nodes = (
"302 -631 OFFCURVE",
"298 -632 OFFCURVE",
"301 -631 CURVE"
);
}
);
width = 382;
}
);
unicode = F0B4;
},
{
glyphname = uniF0B2;
lastChange = "2018-06-06 20:09:02 +0000";
layers = (
{
layerId = "02376AAC-77FF-49DA-9399-294AF7A35492";
paths = (
{
closed = 1;
nodes = (
"338 275 OFFCURVE",
"336 128 OFFCURVE",
"335 128 CURVE",
"206 128 OFFCURVE",
"62 25 OFFCURVE",
"62 -70 CURVE",
"62 -133 OFFCURVE",
"88 -152 OFFCURVE",
"178 -152 CURVE",
"300 -152 OFFCURVE",
"408 -19 OFFCURVE",
"408 79 CURVE",
"415 448 LINE",
"424 448 LINE",
"425 442 OFFCURVE",
"683 531 OFFCURVE",
"684 531 CURVE",
"685 531 OFFCURVE",
"642 618 OFFCURVE",
"642 620 CURVE",
"642 623 OFFCURVE",
"442 545 OFFCURVE",
"420 536 CURVE",
"416 535 LINE",
"418 620 LINE",
"423 604 OFFCURVE",
"685 727 OFFCURVE",
"748 727 CURVE",
"749 727 OFFCURVE",
"754 833 OFFCURVE",
"754 835 CURVE",
"754 838 OFFCURVE",
"22 596 OFFCURVE",
"0 588 CURVE",
"0 509 LINE",
"329 598 LINE",
"331 520 LINE",
"136 469 LINE",
"97 375 LINE",
"340 433 LINE"
);
}
);
width = 754;
}
);
unicode = F0B2;
},
{
glyphname = uniF0B5;
lastChange = "2018-06-06 20:09:51 +0000";
layers = (
{
layerId = "02376AAC-77FF-49DA-9399-294AF7A35492";
paths = (
{
closed = 1;
nodes = (
"352 -335 OFFCURVE",
"347 -159 OFFCURVE",
"346 -159 CURVE",
"212 -159 OFFCURVE",
"64 -52 OFFCURVE",
"64 45 CURVE",
"64 109 OFFCURVE",
"91 129 OFFCURVE",
"185 129 CURVE",
"310 129 OFFCURVE",
"421 -8 OFFCURVE",
"421 -109 CURVE",
"429 -490 LINE",
"437 -490 LINE",
"439 -485 OFFCURVE",
"691 -440 OFFCURVE",
"692 -440 CURVE",
"693 -440 OFFCURVE",
"649 -530 OFFCURVE",
"649 -532 CURVE",
"649 -536 OFFCURVE",
"460 -578 OFFCURVE",
"433 -581 CURVE",
"430 -580 LINE",
"431 -669 LINE",
"437 -651 OFFCURVE",
"694 -642 OFFCURVE",
"758 -642 CURVE",
"760 -642 OFFCURVE",
"764 -752 OFFCURVE",
"764 -755 CURVE",
"764 -758 OFFCURVE",
"23 -825 OFFCURVE",
"0 -817 CURVE",
"0 -735 LINE",
"343 -676 LINE",
"341 -592 LINE",
"103 -639 LINE",
"66 -547 LINE",
"354 -496 LINE"
);
}
);
width = 764;
}
);
unicode = F0B5;
},
{
glyphname = uniE080;
lastChange = "2019-03-27 17:24:44 +0000";
layers = (
{
hints = (
{
horizontal = 1;
place = "{-250, 45}";
type = Stem;
},
{
horizontal = 1;
place = "{220, 31}";
type = Stem;
},
{
place = "{20, 140}";
type = Stem;
},
{
place = "{310, 140}";
type = Stem;
}
);
layerId = "02376AAC-77FF-49DA-9399-294AF7A35492";
paths = (
{
closed = 1;
nodes = (
"450 139 OFFCURVE",
"354 251 OFFCURVE",
"235 251 CURVE SMOOTH",
"116 251 OFFCURVE",
"20 139 OFFCURVE",
"20 0 CURVE SMOOTH",
"20 -138 OFFCURVE",
"116 -250 OFFCURVE",
"235 -250 CURVE SMOOTH",
"354 -250 OFFCURVE",
"450 -138 OFFCURVE",
"450 0 CURVE SMOOTH"
);
},
{
closed = 1;
nodes = (
"276 220 OFFCURVE",
"310 125 OFFCURVE",
"310 7 CURVE SMOOTH",
"310 -110 OFFCURVE",
"276 -205 OFFCURVE",
"235 -205 CURVE SMOOTH",
"193 -205 OFFCURVE",
"160 -110 OFFCURVE",
"160 7 CURVE SMOOTH",
"160 125 OFFCURVE",
"193 220 OFFCURVE",
"235 220 CURVE SMOOTH"
);
}
);
width = 470;
}
);
note = uniE080;
unicode = E080;
},
{
glyphname = uniE081;
lastChange = "2019-03-27 17:24:44 +0000";
layers = (
{
hints = (
{
horizontal = 1;
place = "{-250, 31}";
type = Stem;
},
{
horizontal = 1;
place = "{251, -20}";
target = down;
type = TopGhost;
},
{
place = "{124, 143}";
type = Stem;
},
{
horizontal = 1;
place = "{250, -20}";
target = down;
type = TopGhost;
}
);
layerId = "02376AAC-77FF-49DA-9399-294AF7A35492";
paths = (
{
closed = 1;
nodes = (
"24 13 LINE",
"24 13 OFFCURVE",
"20 7 OFFCURVE",
"20 0 CURVE SMOOTH",
"20 -5 OFFCURVE",
"23 -11 OFFCURVE",
"31 -14 CURVE",
"35 -15 OFFCURVE",
"39 -16 OFFCURVE",
"40 -16 CURVE SMOOTH",
"50 -16 OFFCURVE",
"54 -7 OFFCURVE",
"54 -7 CURVE SMOOTH",
"54 -7 OFFCURVE",
"97 62 OFFCURVE",
"108 81 CURVE SMOOTH",
"112 88 OFFCURVE",
"116 91 OFFCURVE",
"118 91 CURVE SMOOTH",
"122 91 OFFCURVE",
"124 83 OFFCURVE",
"124 77 CURVE SMOOTH",
"124 -181 LINE SMOOTH",
"124 -204 OFFCURVE",
"101 -219 OFFCURVE",
"80 -219 CURVE SMOOTH",
"73 -219 OFFCURVE",
"63 -222 OFFCURVE",
"63 -234 CURVE SMOOTH",
"63 -245 OFFCURVE",
"72 -250 OFFCURVE",
"85 -250 CURVE SMOOTH",
"298 -250 LINE SMOOTH",
"314 -250 OFFCURVE",
"314 -234 OFFCURVE",
"314 -234 CURVE SMOOTH",
"314 -234 OFFCURVE",
"314 -219 OFFCURVE",
"299 -219 CURVE SMOOTH",
"285 -219 OFFCURVE",
"267 -201 OFFCURVE",
"267 -184 CURVE SMOOTH",
"267 228 LINE SMOOTH",
"267 244 OFFCURVE",
"261 250 OFFCURVE",
"247 251 CURVE",
"233 251 OFFCURVE",
"208 247 OFFCURVE",
"195 247 CURVE SMOOTH",
"176 247 OFFCURVE",
"158 248 OFFCURVE",
"143 250 CURVE",
"141 250 OFFCURVE",
"139 251 OFFCURVE",
"138 251 CURVE SMOOTH",
"128 251 OFFCURVE",
"124 241 OFFCURVE",
"120 232 CURVE SMOOTH"
);
}
);
width = 334;
}
);
note = uniE081;
unicode = E081;
},
{
glyphname = uniE082;
lastChange = "2019-03-27 17:24:44 +0000";
layers = (
{
hints = (
{
horizontal = 1;
place = "{-250, 117}";
type = Stem;
},
{
horizontal = 1;
place = "{20, 234}";
type = Stem;
},
{
place = "{20, 161}";
type = Stem;
},
{
place = "{281, 145}";
type = Stem;
},
{
horizontal = 1;
place = "{-257, 21}";
target = up;
type = BottomGhost;
},
{
horizontal = 1;
place = "{-196, 101}";
type = Stem;
},
{
horizontal = 1;
place = "{229, 25}";
type = Stem;
}
);
layerId = "02376AAC-77FF-49DA-9399-294AF7A35492";
paths = (
{
closed = 1;
nodes = (
"421 -79 OFFCURVE",
"416 -77 OFFCURVE",
"409 -77 CURVE SMOOTH",
"401 -77 OFFCURVE",
"398 -81 OFFCURVE",
"396 -87 CURVE",
"396 -88 OFFCURVE",
"395 -89 OFFCURVE",
"395 -90 CURVE",
"385 -114 OFFCURVE",
"377 -133 OFFCURVE",
"356 -133 CURVE SMOOTH",
"351 -133 OFFCURVE",
"346 -132 OFFCURVE",
"339 -130 CURVE",
"326 -125 OFFCURVE",
"319 -124 OFFCURVE",
"309 -119 CURVE",
"289 -111 OFFCURVE",
"242 -95 OFFCURVE",
"201 -95 CURVE SMOOTH",
"188 -95 OFFCURVE",
"175 -97 OFFCURVE",
"164 -101 CURVE",
"186 -65 OFFCURVE",
"271 -35 OFFCURVE",
"293 -29 CURVE SMOOTH",
"308 -25 OFFCURVE",
"350 -17 OFFCURVE",
"383 10 CURVE SMOOTH",
"407 29 OFFCURVE",
"426 58 OFFCURVE",
"426 102 CURVE SMOOTH",
"426 149 OFFCURVE",
"406 183 OFFCURVE",
"380 205 CURVE SMOOTH",
"329 248 OFFCURVE",
"251 254 OFFCURVE",
"229 254 CURVE SMOOTH",
"202 254 OFFCURVE",
"168 253 OFFCURVE",
"142 247 CURVE SMOOTH",
"107 240 OFFCURVE",
"72 219 OFFCURVE",
"48 191 CURVE SMOOTH",
"31 170 OFFCURVE",
"20 145 OFFCURVE",
"20 118 CURVE SMOOTH",
"20 104 OFFCURVE",
"23 90 OFFCURVE",
"29 75 CURVE",
"44 44 OFFCURVE",
"75 20 OFFCURVE",
"111 20 CURVE SMOOTH",
"172 20 OFFCURVE",
"181 83 OFFCURVE",
"181 108 CURVE SMOOTH",
"181 168 OFFCURVE",
"112 171 OFFCURVE",
"112 191 CURVE",
"114 205 OFFCURVE",
"132 229 OFFCURVE",
"191 229 CURVE SMOOTH",
"280 229 OFFCURVE",
"281 162 OFFCURVE",
"281 133 CURVE SMOOTH",
"281 95 OFFCURVE",
"269 60 OFFCURVE",
"247 31 CURVE SMOOTH",
"211 -17 OFFCURVE",
"183 -41 OFFCURVE",
"134 -71 CURVE SMOOTH",
"79 -106 OFFCURVE",
"40 -155 OFFCURVE",
"23 -218 CURVE",
"23 -220 OFFCURVE",
"22 -222 OFFCURVE",
"22 -224 CURVE SMOOTH",
"22 -235 OFFCURVE",
"29 -248 OFFCURVE",
"40 -255 CURVE SMOOTH",
"43 -257 OFFCURVE",
"46 -257 OFFCURVE",
"48 -257 CURVE SMOOTH",
"70 -257 OFFCURVE",
"82 -196 OFFCURVE",
"141 -196 CURVE SMOOTH",
"181 -196 OFFCURVE",
"196 -250 OFFCURVE",
"285 -250 CURVE SMOOTH",
"328 -250 OFFCURVE",
"405 -246 OFFCURVE",
"421 -91 CURVE"
);
}
);
width = 446;
}
);
note = uniE082;
unicode = E082;
},
{
glyphname = uniE083;
lastChange = "2019-03-27 17:24:44 +0000";
layers = (
{
hints = (
{
horizontal = 1;
place = "{-251, 38}";
type = Stem;
},
{
horizontal = 1;
place = "{-4, 29}";
type = Stem;
},
{
horizontal = 1;
place = "{248, -20}";
target = down;
type = TopGhost;
},
{
place = "{26, 152}";
type = Stem;
},
{
place = "{263, 117}";
type = Stem;
},
{
horizontal = 1;
place = "{58, 191}";
type = Stem;
},
{
horizontal = 1;
place = "{215, 34}";
type = Stem;
},
{
place = "{263, 138}";
type = Stem;
}
);
layerId = "02376AAC-77FF-49DA-9399-294AF7A35492";
paths = (
{
closed = 1;
nodes = (
"208 248 OFFCURVE",
"203 249 OFFCURVE",
"198 249 CURVE SMOOTH",
"112 249 OFFCURVE",
"26 192 OFFCURVE",
"26 139 CURVE SMOOTH",
"26 106 OFFCURVE",
"45 62 OFFCURVE",
"107 58 CURVE",
"112 58 LINE SMOOTH",
"156 58 OFFCURVE",
"178 90 OFFCURVE",
"178 123 CURVE SMOOTH",
"178 131 LINE",
"175 168 OFFCURVE",
"150 170 OFFCURVE",
"145 172 CURVE SMOOTH",
"140 174 OFFCURVE",
"125 172 OFFCURVE",
"125 186 CURVE SMOOTH",
"125 190 LINE",
"127 207 OFFCURVE",
"158 215 OFFCURVE",
"167 215 CURVE SMOOTH",
"252 215 OFFCURVE",
"260 162 OFFCURVE",
"260 138 CURVE SMOOTH",
"260 131 LINE SMOOTH",
"260 57 OFFCURVE",
"201 28 OFFCURVE",
"138 25 CURVE",
"128 24 OFFCURVE",
"114 19 OFFCURVE",
"114 8 CURVE SMOOTH",
"114 -4 OFFCURVE",
"131 -4 OFFCURVE",
"139 -4 CURVE SMOOTH",
"254 -4 OFFCURVE",
"263 -82 OFFCURVE",
"263 -95 CURVE SMOOTH",
"263 -201 OFFCURVE",
"209 -213 OFFCURVE",
"187 -213 CURVE SMOOTH",
"183 -213 OFFCURVE",
"179 -212 OFFCURVE",
"178 -212 CURVE",
"170 -211 OFFCURVE",
"151 -211 OFFCURVE",
"150 -196 CURVE",
"150 -191 LINE SMOOTH",
"150 -169 OFFCURVE",
"172 -154 OFFCURVE",
"173 -125 CURVE SMOOTH",
"173 -115 OFFCURVE",
"172 -104 OFFCURVE",
"168 -94 CURVE SMOOTH",
"157 -69 OFFCURVE",
"128 -53 OFFCURVE",
"101 -53 CURVE SMOOTH",
"97 -53 OFFCURVE",
"94 -53 OFFCURVE",
"90 -54 CURVE",
"73 -57 OFFCURVE",
"54 -67 OFFCURVE",
"42 -80 CURVE",
"25 -95 OFFCURVE",
"20 -119 OFFCURVE",
"20 -141 CURVE SMOOTH",
"22 -219 OFFCURVE",
"93 -249 OFFCURVE",
"191 -251 CURVE SMOOTH",
"200 -251 LINE SMOOTH",
"299 -251 OFFCURVE",
"401 -200 OFFCURVE",
"401 -112 CURVE SMOOTH",
"401 -105 LINE",
"400 -91 OFFCURVE",
"398 -77 OFFCURVE",
"392 -64 CURVE",
"388 -54 OFFCURVE",
"381 -44 OFFCURVE",
"373 -35 CURVE",
"367 -27 OFFCURVE",
"359 -20 OFFCURVE",
"349 -14 CURVE SMOOTH",
"328 -2 LINE",
"295 7 LINE",
"290 8 OFFCURVE",
"287 8 OFFCURVE",
"285 12 CURVE SMOOTH",
"284 14 OFFCURVE",
"284 15 OFFCURVE",
"284 17 CURVE SMOOTH",
"284 21 OFFCURVE",
"285 25 OFFCURVE",
"288 26 CURVE",
"299 29 OFFCURVE",
"310 30 OFFCURVE",
"319 35 CURVE",
"334 42 OFFCURVE",
"347 49 OFFCURVE",
"358 62 CURVE SMOOTH",
"374 80 OFFCURVE",
"380 103 OFFCURVE",
"380 126 CURVE SMOOTH",
"380 218 OFFCURVE",
"255 245 OFFCURVE",
"213 248 CURVE"
);
}
);
width = 421;
}
);
note = uniE083;
unicode = E083;
},
{
glyphname = uniE084;
lastChange = "2019-03-27 17:24:44 +0000";
layers = (
{
hints = (
{
horizontal = 1;
place = "{-250, 40}";
type = Stem;
},
{
horizontal = 1;
place = "{-112, 38}";
type = Stem;
},
{
horizontal = 1;
place = "{251, -20}";
target = down;
type = TopGhost;
},
{
place = "{226, 136}";
type = Stem;
},
{
place = "{158, 204}";
type = Stem;
},
{
place = "{226, 189}";
type = Stem;
}
);
layerId = "02376AAC-77FF-49DA-9399-294AF7A35492";
paths = (
{
closed = 1;
nodes = (
"362 -74 LINE",
"362 140 LINE SMOOTH",
"362 148 OFFCURVE",
"361 157 OFFCURVE",
"350 157 CURVE SMOOTH",
"341 157 OFFCURVE",
"336 155 OFFCURVE",
"330 148 CURVE SMOOTH",
"235 33 LINE SMOOTH",
"231 28 OFFCURVE",
"226 22 OFFCURVE",
"226 10 CURVE SMOOTH",
"226 -74 LINE",
"91 -74 LINE",
"171 -6 OFFCURVE",
"331 221 OFFCURVE",
"334 232 CURVE",
"334 234 OFFCURVE",
"335 235 OFFCURVE",
"335 237 CURVE SMOOTH",
"335 245 OFFCURVE",
"328 251 OFFCURVE",
"320 251 CURVE SMOOTH",
"311 251 OFFCURVE",
"270 249 OFFCURVE",
"252 249 CURVE SMOOTH",
"234 249 OFFCURVE",
"189 251 OFFCURVE",
"181 251 CURVE SMOOTH",
"172 251 OFFCURVE",
"158 248 OFFCURVE",
"158 232 CURVE SMOOTH",
"158 108 OFFCURVE",
"60 -31 OFFCURVE",
"30 -73 CURVE SMOOTH",
"24 -81 LINE",
"24 -82 OFFCURVE",
"23 -83 OFFCURVE",
"23 -84 CURVE",
"21 -88 OFFCURVE",
"20 -92 OFFCURVE",
"20 -95 CURVE SMOOTH",
"20 -105 OFFCURVE",
"28 -112 OFFCURVE",
"40 -112 CURVE SMOOTH",
"226 -112 LINE",
"226 -175 LINE SMOOTH",
"226 -202 OFFCURVE",
"204 -210 OFFCURVE",
"186 -210 CURVE SMOOTH",
"170 -210 OFFCURVE",
"163 -219 OFFCURVE",
"163 -229 CURVE SMOOTH",
"163 -239 OFFCURVE",
"167 -250 OFFCURVE",
"182 -250 CURVE SMOOTH",
"395 -250 LINE SMOOTH",
"405 -250 OFFCURVE",
"415 -243 OFFCURVE",
"415 -229 CURVE SMOOTH",
"415 -215 OFFCURVE",
"403 -209 OFFCURVE",
"393 -209 CURVE SMOOTH",
"383 -209 OFFCURVE",
"362 -203 OFFCURVE",
"362 -171 CURVE SMOOTH",
"362 -112 LINE",
"435 -112 LINE SMOOTH",
"445 -112 OFFCURVE",
"450 -105 OFFCURVE",
"450 -93 CURVE SMOOTH",
"450 -81 OFFCURVE",
"446 -74 OFFCURVE",
"435 -74 CURVE SMOOTH"
);
}
);
width = 470;
}
);
note = uniE084;
unicode = E084;
},
{
glyphname = uniE085;
lastChange = "2019-03-27 17:24:44 +0000";
layers = (
{
hints = (
{
horizontal = 1;
place = "{-251, 40}";
type = Stem;
},
{
horizontal = 1;
place = "{43, 35}";
type = Stem;
},
{
horizontal = 1;
place = "{128, 108}";
type = Stem;
},
{
place = "{20, 158}";
type = Stem;
},
{
place = "{248, 135}";
type = Stem;
},
{
horizontal = 1;
place = "{245, -20}";
target = down;
type = TopGhost;
},
{
horizontal = 1;
place = "{246, -20}";
target = down;
type = TopGhost;
},
{
horizontal = 1;
place = "{-251, 216}";
type = Stem;
}
);
layerId = "02376AAC-77FF-49DA-9399-294AF7A35492";
paths = (
{
closed = 1;
nodes = (
"76 59 LINE",
"76 59 OFFCURVE",
"80 115 OFFCURVE",
"81 124 CURVE SMOOTH",
"82 132 OFFCURVE",
"87 137 OFFCURVE",
"96 137 CURVE SMOOTH",
"100 137 LINE",
"110 135 OFFCURVE",
"157 128 OFFCURVE",
"198 128 CURVE SMOOTH",
"337 128 OFFCURVE",
"342 208 OFFCURVE",
"342 224 CURVE SMOOTH",
"342 237 OFFCURVE",
"339 245 OFFCURVE",
"328 245 CURVE SMOOTH",
"315 245 OFFCURVE",
"237 236 OFFCURVE",
"205 236 CURVE SMOOTH",
"173 236 OFFCURVE",
"87 244 OFFCURVE",
"70 246 CURVE",
"52 246 OFFCURVE",
"47 237 OFFCURVE",
"46 229 CURVE",
"35 7 LINE",
"35 5 LINE SMOOTH",
"35 -8 OFFCURVE",
"45 -10 OFFCURVE",
"55 -10 CURVE SMOOTH",
"65 -10 OFFCURVE",
"66 -1 OFFCURVE",
"77 10 CURVE SMOOTH",
"87 20 OFFCURVE",
"111 43 OFFCURVE",
"145 43 CURVE SMOOTH",
"179 43 OFFCURVE",
"248 24 OFFCURVE",
"248 -87 CURVE SMOOTH",
"248 -197 OFFCURVE",
"189 -211 OFFCURVE",
"163 -211 CURVE SMOOTH",
"155 -211 OFFCURVE",
"147 -211 OFFCURVE",
"140 -208 CURVE",
"135 -205 OFFCURVE",
"129 -201 OFFCURVE",
"128 -194 CURVE",
"128 -187 OFFCURVE",
"135 -183 OFFCURVE",
"140 -180 CURVE SMOOTH",
"163 -166 OFFCURVE",
"178 -141 OFFCURVE",
"178 -113 CURVE SMOOTH",
"178 -69 OFFCURVE",
"143 -35 OFFCURVE",
"100 -35 CURVE SMOOTH",
"46 -35 OFFCURVE",
"24 -74 OFFCURVE",
"21 -109 CURVE",
"20 -115 OFFCURVE",
"20 -121 OFFCURVE",
"20 -127 CURVE SMOOTH",
"20 -210 OFFCURVE",
"74 -251 OFFCURVE",
"197 -251 CURVE SMOOTH",
"317 -251 OFFCURVE",
"383 -177 OFFCURVE",
"383 -87 CURVE SMOOTH",
"383 4 OFFCURVE",
"309 78 OFFCURVE",
"218 78 CURVE SMOOTH",
"160 78 OFFCURVE",
"117 68 OFFCURVE",
"85 49 CURVE",
"83 48 OFFCURVE",
"81 48 OFFCURVE",
"80 48 CURVE SMOOTH",
"76 48 OFFCURVE",
"76 52 OFFCURVE",
"76 55 CURVE SMOOTH"
);
}
);
width = 403;
}
);
note = uniE085;
unicode = E085;
},
{
glyphname = uniE086;
lastChange = "2019-03-27 17:24:44 +0000";
layers = (
{
hints = (
{
horizontal = 1;
place = "{-249, 27}";
type = Stem;
},
{
horizontal = 1;
place = "{2, 48}";
type = Stem;
},
{
horizontal = 1;
place = "{227, 24}";
type = Stem;
},
{
place = "{20, 137}";
type = Stem;
},
{
place = "{281, 133}";
type = Stem;
}
);
layerId = "02376AAC-77FF-49DA-9399-294AF7A35492";
paths = (
{
closed = 1;
nodes = (
"272 88 OFFCURVE",
"289 83 OFFCURVE",
"305 83 CURVE SMOOTH",
"313 83 OFFCURVE",
"322 85 OFFCURVE",
"330 87 CURVE SMOOTH",
"361 95 OFFCURVE",
"385 127 OFFCURVE",
"385 159 CURVE SMOOTH",
"385 163 OFFCURVE",
"385 166 OFFCURVE",
"384 170 CURVE",
"379 203 OFFCURVE",
"351 227 OFFCURVE",
"321 238 CURVE",
"297 248 OFFCURVE",
"268 251 OFFCURVE",
"242 251 CURVE SMOOTH",
"166 250 OFFCURVE",
"95 213 OFFCURVE",
"59 145 CURVE SMOOTH",
"37 103 OFFCURVE",
"20 50 OFFCURVE",
"20 3 CURVE SMOOTH",
"20 -1 LINE SMOOTH",
"21 -47 OFFCURVE",
"29 -99 OFFCURVE",
"51 -139 CURVE SMOOTH",
"72 -177 OFFCURVE",
"106 -218 OFFCURVE",
"145 -235 CURVE SMOOTH",
"170 -246 OFFCURVE",
"200 -249 OFFCURVE",
"225 -249 CURVE SMOOTH",
"270 -249 OFFCURVE",
"320 -242 OFFCURVE",
"356 -213 CURVE SMOOTH",
"391 -185 OFFCURVE",
"414 -140 OFFCURVE",
"414 -95 CURVE SMOOTH",
"414 -39 OFFCURVE",
"384 -5 OFFCURVE",
"352 19 CURVE SMOOTH",
"325 39 OFFCURVE",
"294 50 OFFCURVE",
"263 50 CURVE SMOOTH",
"231 50 OFFCURVE",
"198 38 OFFCURVE",
"172 15 CURVE",
"170 13 OFFCURVE",
"168 13 OFFCURVE",
"166 13 CURVE SMOOTH",
"160 13 OFFCURVE",
"157 21 OFFCURVE",
"157 37 CURVE SMOOTH",
"160 222 OFFCURVE",
"219 227 OFFCURVE",
"240 227 CURVE SMOOTH",
"260 227 OFFCURVE",
"273 222 OFFCURVE",
"273 212 CURVE SMOOTH",
"273 198 OFFCURVE",
"254 186 OFFCURVE",
"248 174 CURVE",
"243 165 OFFCURVE",
"241 155 OFFCURVE",
"241 145 CURVE SMOOTH",
"241 130 OFFCURVE",
"246 115 OFFCURVE",
"256 104 CURVE",
"257 102 OFFCURVE",
"259 101 OFFCURVE",
"260 100 CURVE SMOOTH"
);
},
{
closed = 1;
nodes = (
"254 2 OFFCURVE",
"281 -48 OFFCURVE",
"281 -110 CURVE SMOOTH",
"281 -172 OFFCURVE",
"254 -222 OFFCURVE",
"222 -222 CURVE SMOOTH",
"190 -222 OFFCURVE",
"164 -172 OFFCURVE",
"164 -110 CURVE SMOOTH",
"164 -48 OFFCURVE",
"190 2 OFFCURVE",
"222 2 CURVE SMOOTH"
);
}
);
width = 434;
}
);
note = uniE086;
unicode = E086;
},
{
glyphname = uniE087;
lastChange = "2019-03-27 17:24:44 +0000";
layers = (
{
hints = (
{
horizontal = 1;
place = "{-250, 21}";
target = up;
type = BottomGhost;
},
{
horizontal = 1;
place = "{61, 103}";
type = Stem;
},
{
place = "{120, 182}";
type = Stem;
},
{
horizontal = 1;
place = "{136, 113}";
type = Stem;
}
);
layerId = "02376AAC-77FF-49DA-9399-294AF7A35492";
paths = (
{
closed = 1;
nodes = (
"421 204 LINE SMOOTH",
"421 231 OFFCURVE",
"421 244 OFFCURVE",
"404 244 CURVE SMOOTH",
"403 244 OFFCURVE",
"387 240 OFFCURVE",
"383 233 CURVE SMOOTH",
"376 221 OFFCURVE",
"362 164 OFFCURVE",
"337 164 CURVE SMOOTH",
"312 164 OFFCURVE",
"265 249 OFFCURVE",
"182 249 CURVE SMOOTH",
"124 249 OFFCURVE",
"109 226 OFFCURVE",
"95 213 CURVE SMOOTH",
"81 200 OFFCURVE",
"75 196 OFFCURVE",
"68 195 CURVE",
"60 195 OFFCURVE",
"47 209 OFFCURVE",
"42 219 CURVE SMOOTH",
"40 223 OFFCURVE",
"35 226 OFFCURVE",
"30 226 CURVE SMOOTH",
"25 226 OFFCURVE",
"20 223 OFFCURVE",
"20 214 CURVE SMOOTH",
"20 49 LINE",
"20 49 OFFCURVE",
"21 33 OFFCURVE",
"31 33 CURVE SMOOTH",
"39 33 OFFCURVE",
"42 42 OFFCURVE",
"46 53 CURVE SMOOTH",
"56 78 OFFCURVE",
"69 136 OFFCURVE",
"114 136 CURVE SMOOTH",
"154 136 OFFCURVE",
"202 61 OFFCURVE",
"260 61 CURVE SMOOTH",
"288 61 OFFCURVE",
"302 76 OFFCURVE",
"310 82 CURVE",
"313 84 OFFCURVE",
"317 86 OFFCURVE",
"319 86 CURVE SMOOTH",
"323 86 OFFCURVE",
"325 83 OFFCURVE",
"326 77 CURVE",
"326 49 OFFCURVE",
"249 -7 OFFCURVE",
"189 -78 CURVE SMOOTH",
"151 -122 OFFCURVE",
"120 -180 OFFCURVE",
"120 -219 CURVE SMOOTH",
"120 -240 OFFCURVE",
"120 -250 OFFCURVE",
"139 -250 CURVE SMOOTH",
"157 -250 OFFCURVE",
"179 -241 OFFCURVE",
"204 -241 CURVE SMOOTH",
"229 -241 OFFCURVE",
"276 -250 OFFCURVE",
"286 -250 CURVE SMOOTH",
"296 -250 OFFCURVE",
"302 -242 OFFCURVE",
"302 -213 CURVE SMOOTH",
"302 -46 OFFCURVE",
"421 97 OFFCURVE",
"421 200 CURVE SMOOTH"
);
}
);
width = 441;
}
);
note = uniE087;
unicode = E087;
},
{
glyphname = uniE088;
lastChange = "2019-03-27 17:24:44 +0000";
layers = (
{
hints = (
{
horizontal = 1;
place = "{-259, 33}";
type = Stem;
},
{
horizontal = 1;
place = "{230, 29}";
type = Stem;
},
{
place = "{25, 52}";
type = Stem;
},
{
place = "{335, 59}";
type = Stem;
},
{
place = "{303, 113}";
type = Stem;
},
{
place = "{25, 92}";
type = Stem;
}
);
layerId = "02376AAC-77FF-49DA-9399-294AF7A35492";
paths = (
{
closed = 1;
nodes = (
"370 59 OFFCURVE",
"394 92 OFFCURVE",
"394 142 CURVE SMOOTH",
"394 244 OFFCURVE",
"247 259 OFFCURVE",
"220 259 CURVE SMOOTH",
"104 259 OFFCURVE",
"25 206 OFFCURVE",
"25 122 CURVE SMOOTH",
"25 53 OFFCURVE",
"64 16 OFFCURVE",
"112 -11 CURVE",
"60 -36 OFFCURVE",
"20 -69 OFFCURVE",
"20 -132 CURVE SMOOTH",
"20 -219 OFFCURVE",
"110 -259 OFFCURVE",
"209 -259 CURVE SMOOTH",
"309 -259 OFFCURVE",
"416 -216 OFFCURVE",
"416 -81 CURVE SMOOTH",
"416 -21 OFFCURVE",
"381 12 OFFCURVE",
"334 36 CURVE"
);
},
{
closed = 1;
nodes = (
"138 -226 OFFCURVE",
"77 -192 OFFCURVE",
"77 -127 CURVE SMOOTH",
"77 -87 OFFCURVE",
"112 -50 OFFCURVE",
"156 -33 CURVE",
"229 -65 OFFCURVE",
"303 -86 OFFCURVE",
"303 -152 CURVE SMOOTH",
"303 -192 OFFCURVE",
"272 -226 OFFCURVE",
"205 -226 CURVE SMOOTH"
);
},
{
closed = 1;
nodes = (
"202 87 OFFCURVE",
"117 104 OFFCURVE",
"117 167 CURVE SMOOTH",
"117 209 OFFCURVE",
"174 230 OFFCURVE",
"218 230 CURVE SMOOTH",
"250 230 OFFCURVE",
"335 214 OFFCURVE",
"335 144 CURVE SMOOTH",
"335 104 OFFCURVE",
"315 78 OFFCURVE",
"282 59 CURVE"
);
}
);
width = 436;
}
);
note = uniE088;
unicode = E088;
},
{
glyphname = uniE089;
lastChange = "2019-03-27 17:24:44 +0000";
layers = (
{
hints = (
{
horizontal = 1;
place = "{-249, 24}";
type = Stem;
},
{
horizontal = 1;
place = "{-48, 48}";
type = Stem;
},
{
horizontal = 1;
place = "{224, 27}";
type = Stem;
},
{
place = "{20, 133}";
type = Stem;
},
{
place = "{277, 137}";
type = Stem;
}
);
layerId = "02376AAC-77FF-49DA-9399-294AF7A35492";
paths = (
{
closed = 1;
nodes = (
"162 -86 OFFCURVE",
"145 -81 OFFCURVE",
"129 -81 CURVE SMOOTH",
"121 -81 OFFCURVE",
"112 -83 OFFCURVE",
"104 -85 CURVE SMOOTH",
"73 -93 OFFCURVE",
"49 -125 OFFCURVE",
"49 -157 CURVE SMOOTH",
"49 -161 OFFCURVE",
"49 -164 OFFCURVE",
"50 -168 CURVE",
"55 -201 OFFCURVE",
"83 -225 OFFCURVE",
"113 -236 CURVE",
"137 -246 OFFCURVE",
"166 -249 OFFCURVE",
"192 -249 CURVE SMOOTH",
"268 -248 OFFCURVE",
"339 -211 OFFCURVE",
"375 -143 CURVE SMOOTH",
"397 -101 OFFCURVE",
"414 -48 OFFCURVE",
"414 -1 CURVE SMOOTH",
"414 3 LINE",
"413 49 OFFCURVE",
"405 101 OFFCURVE",
"383 141 CURVE SMOOTH",
"362 179 OFFCURVE",
"328 220 OFFCURVE",
"289 237 CURVE SMOOTH",
"264 248 OFFCURVE",
"234 251 OFFCURVE",
"209 251 CURVE SMOOTH",
"164 251 OFFCURVE",
"114 244 OFFCURVE",
"78 215 CURVE SMOOTH",
"43 187 OFFCURVE",
"20 142 OFFCURVE",
"20 97 CURVE SMOOTH",
"20 41 OFFCURVE",
"50 7 OFFCURVE",
"82 -17 CURVE SMOOTH",
"109 -37 OFFCURVE",
"140 -48 OFFCURVE",
"171 -48 CURVE SMOOTH",
"203 -48 OFFCURVE",
"236 -36 OFFCURVE",
"262 -13 CURVE",
"264 -11 OFFCURVE",
"266 -11 OFFCURVE",
"268 -11 CURVE SMOOTH",
"274 -11 OFFCURVE",
"277 -19 OFFCURVE",
"277 -35 CURVE SMOOTH",
"274 -220 OFFCURVE",
"215 -225 OFFCURVE",
"194 -225 CURVE SMOOTH",
"174 -225 OFFCURVE",
"161 -220 OFFCURVE",
"161 -210 CURVE SMOOTH",
"161 -196 OFFCURVE",
"180 -184 OFFCURVE",
"186 -172 CURVE",
"191 -163 OFFCURVE",
"193 -153 OFFCURVE",
"193 -143 CURVE SMOOTH",
"193 -128 OFFCURVE",
"188 -113 OFFCURVE",
"178 -102 CURVE",
"177 -100 OFFCURVE",
"175 -99 OFFCURVE",
"174 -98 CURVE SMOOTH"
);
},
{
closed = 1;
nodes = (
"180 0 OFFCURVE",
"153 50 OFFCURVE",
"153 112 CURVE SMOOTH",
"153 174 OFFCURVE",
"180 224 OFFCURVE",
"212 224 CURVE SMOOTH",
"244 224 OFFCURVE",
"270 174 OFFCURVE",
"270 112 CURVE SMOOTH",
"270 50 OFFCURVE",
"244 0 OFFCURVE",
"212 0 CURVE SMOOTH"
);
}
);
width = 434;
}
);
note = uniE089;
unicode = E089;
},
